<?xml version="1.0" encoding="UTF-8" standalone="no"?>
<!-- Created with Inkscape (http://www.inkscape.org/) -->

<svg
   width="50"
   height="50"
   viewBox="0 0 50 50"
   version="1.1"
   id="svg1"
   inkscape:version="1.3.2 (091e20e, 2023-11-25, custom)"
   sodipodi:docname="busqueda.svg"
   xmlns:inkscape="http://www.inkscape.org/namespaces/inkscape"
   xmlns:sodipodi="http://sodipodi.sourceforge.net/DTD/sodipodi-0.dtd"
   xmlns="http://www.w3.org/2000/svg"
   xmlns:svg="http://www.w3.org/2000/svg">
  <sodipodi:namedview
     id="namedview1"
     pagecolor="#ffffff"
     bordercolor="#000000"
     borderopacity="0.25"
     inkscape:showpageshadow="2"
     inkscape:pageopacity="0.0"
     inkscape:pagecheckerboard="0"
     inkscape:deskcolor="#d1d1d1"
     inkscape:document-units="mm"
     inkscape:zoom="7.7168104"
     inkscape:cx="26.56538"
     inkscape:cy="28.833156"
     inkscape:window-width="1366"
     inkscape:window-height="715"
     inkscape:window-x="-8"
     inkscape:window-y="-8"
     inkscape:window-maximized="1"
     inkscape:current-layer="layer1" />
  <defs
     id="defs1" />
  <g
     inkscape:label="Capa 1"
     inkscape:groupmode="layer"
     id="layer1"
     style="display:inline">
    <path
       id="path2"
       style="opacity:1;fill:#050000;fill-rule:evenodd;stroke:#000000;stroke-width:4.1621;stroke-linecap:round;stroke-linejoin:round;stroke-opacity:1"
       d="M 17.505902,3.9775362 C 9.9854516,3.9765715 3.8886807,10.073343 3.8896456,17.593793 3.8898035,25.11345 9.9862455,31.208982 17.505902,31.208017 25.024765,31.20786 31.119969,25.112656 31.120127,17.593793 31.121092,10.074136 25.025559,3.9776936 17.505902,3.9775362 Z m -0.05487,1.7071128 c 6.54741,-3.528e-4 11.855536,5.306864 11.856305,11.854273 3.53e-4,6.548202 -5.308103,11.856657 -11.856305,11.856305 C 10.903622,29.394458 5.5964056,24.086331 5.5967584,17.538922 5.5975273,10.992307 10.904416,5.6854182 17.451032,5.684649 Z M 30.341769,27.5865 27.301483,30.628819 42.616162,46.522698 46.30881,42.83005 Z"
       sodipodi:nodetypes="ccccccccccccccc" />
  </g>
</svg>
