<?xml version="1.0" encoding="UTF-8" standalone="no"?>
<svg
   xmlns:dc="http://purl.org/dc/elements/1.1/"
   xmlns:cc="http://creativecommons.org/ns#"
   xmlns:rdf="http://www.w3.org/1999/02/22-rdf-syntax-ns#"
   xmlns:svg="http://www.w3.org/2000/svg"
   xmlns="http://www.w3.org/2000/svg"
   xmlns:sodipodi="http://sodipodi.sourceforge.net/DTD/sodipodi-0.dtd"
   xmlns:inkscape="http://www.inkscape.org/namespaces/inkscape"
   height="512pt"
   viewBox="-79 0 512 512"
   width="512pt"
   version="1.1"
   id="svg3791"
   sodipodi:docname="php.svg"
   inkscape:version="0.92.4 (5da689c313, 2019-01-14)">
  <metadata
     id="metadata3797">
    <rdf:RDF>
      <cc:Work
         rdf:about="">
        <dc:format>image/svg+xml</dc:format>
        <dc:type
           rdf:resource="http://purl.org/dc/dcmitype/StillImage" />
        <dc:title></dc:title>
      </cc:Work>
    </rdf:RDF>
  </metadata>
  <defs
     id="defs3795" />
  <sodipodi:namedview
     pagecolor="#ffffff"
     bordercolor="#666666"
     borderopacity="1"
     objecttolerance="10"
     gridtolerance="10"
     guidetolerance="10"
     inkscape:pageopacity="0"
     inkscape:pageshadow="2"
     inkscape:window-width="1366"
     inkscape:window-height="715"
     id="namedview3793"
     showgrid="false"
     inkscape:zoom="1.7739258"
     inkscape:cx="298.92128"
     inkscape:cy="459.93479"
     inkscape:window-x="-8"
     inkscape:window-y="-8"
     inkscape:window-maximized="1"
     inkscape:current-layer="svg3791" />
  <path
     d="m353.101562 485.515625h-353.101562v-485.515625h273.65625l79.445312 79.449219zm0 0"
     fill="#e3e4d8"
     id="path3777" />
  <path
     d="m273.65625 0v79.449219h79.445312zm0 0"
     fill="#d0cebd"
     id="path3779" />
  <path
     d="m0 353.101562h353.101562v158.898438h-353.101562zm0 0"
     fill="#baafa9"
     id="path3781"
     style="fill:#777bb3;fill-opacity:1" />
  <ellipse
     style="fill:#777bb3;fill-opacity:1;stroke-width:14.99999955;stroke:#7b4ccd;stroke-opacity:1;stroke-miterlimit:4;stroke-dasharray:none"
     id="path4606"
     cx="178.10425"
     cy="189.72279"
     rx="138.71671"
     ry="83.110443" />
  <path
     style="fill:#ffffff;fill-opacity:1;stroke-width:1"
     inkscape:connector-curvature="0"
     d="m 51.13013,502.78147 c -4.87109,0 -8.82812,-3.95311 -8.82812,-8.8242 v -88.27736 c 0,-4.875 3.95703,-8.82812 8.82812,-8.82812 4.875,0 8.82813,3.95312 8.82813,8.82812 v 88.27736 c 0,4.87109 -3.95313,8.8242 -8.82813,8.8242 z m 0,0"
     id="path4688" />
  <path
     inkscape:connector-curvature="0"
     style="fill:#ffffff;stroke-width:1"
     d="M 77.61451,467.47288 H 51.13013 c -4.87109,0 -8.82812,-3.95312 -8.82812,-8.82812 v -52.96485 c 0,-4.875 3.95703,-8.82812 8.82812,-8.82812 h 26.48438 c 19.47266,0 35.30859,15.83593 35.30859,35.3125 0,19.47265 -15.83593,35.30859 -35.30859,35.30859 z M 59.95826,449.81663 h 17.65625 c 9.73438,0 17.65234,-7.91797 17.65234,-17.65234 0,-9.73828 -7.91796,-17.65625 -17.65234,-17.65625 H 59.95826 Z m 0,0"
     id="path4700" />
  <path
     style="stroke-width:1;fill:#ffffff;fill-opacity:1"
     inkscape:connector-curvature="0"
     d="m 150.41625,502.78147 c -4.8711,0 -8.82813,-3.94531 -8.82813,-8.8242 v -88.27736 c 0,-4.88281 3.95703,-8.82812 8.82813,-8.82812 4.875,0 8.82812,3.94531 8.82812,8.82812 v 88.27736 c 0,4.87889 -3.95312,8.8242 -8.82812,8.8242 z m 0,0"
     id="path4782" />
  <path
     style="stroke-width:1;fill:#ffffff;fill-opacity:1"
     inkscape:connector-curvature="0"
     d="m 203.38109,502.78147 c -4.8711,0 -8.82812,-3.94531 -8.82812,-8.8242 v -88.27736 c 0,-4.88281 3.95702,-8.82812 8.82812,-8.82812 4.875,0 8.82812,3.94531 8.82812,8.82812 v 88.27736 c 0,4.87889 -3.95312,8.8242 -8.82812,8.8242 z m 0,0"
     id="path4784" />
  <path
     style="stroke-width:1;fill:#ffffff;fill-opacity:1"
     inkscape:connector-curvature="0"
     d="m 203.38109,458.64476 h -52.96484 c -4.8711,0 -8.82813,-3.94532 -8.82813,-8.82813 0,-4.87891 3.95703,-8.82812 8.82813,-8.82812 h 52.96484 c 4.875,0 8.82812,3.94921 8.82812,8.82812 0,4.88281 -3.95312,8.82813 -8.82812,8.82813 z m 0,0"
     id="path4786" />
  <path
     style="fill:#ffffff;fill-opacity:1;stroke-width:1"
     inkscape:connector-curvature="0"
     d="m 247.42673,501.96896 c -4.87109,0 -8.82812,-3.95311 -8.82812,-8.8242 V 404.8674 c 0,-4.875 3.95703,-8.82812 8.82812,-8.82812 4.87501,0 8.82813,3.95312 8.82813,8.82812 v 88.27736 c 0,4.87109 -3.95312,8.8242 -8.82813,8.8242 z m 0,0"
     id="path4688-3" />
  <path
     inkscape:connector-curvature="0"
     style="fill:#ffffff;stroke-width:1"
     d="m 273.91112,466.66037 h -26.48439 c -4.87109,0 -8.82812,-3.95312 -8.82812,-8.82812 V 404.8674 c 0,-4.875 3.95703,-8.82812 8.82812,-8.82812 h 26.48439 c 19.47266,0 35.30859,15.83593 35.30859,35.3125 0,19.47265 -15.83593,35.30859 -35.30859,35.30859 z m -17.65626,-17.65625 h 17.65626 c 9.73438,0 17.65234,-7.91797 17.65234,-17.65234 0,-9.73828 -7.91796,-17.65625 -17.65234,-17.65625 h -17.65626 z m 0,0"
     id="path4700-3" />
</svg>
