<?xml version="1.0" encoding="UTF-8" standalone="no"?>
<svg
   xmlns:dc="http://purl.org/dc/elements/1.1/"
   xmlns:cc="http://creativecommons.org/ns#"
   xmlns:rdf="http://www.w3.org/1999/02/22-rdf-syntax-ns#"
   xmlns:svg="http://www.w3.org/2000/svg"
   xmlns="http://www.w3.org/2000/svg"
   xmlns:sodipodi="http://sodipodi.sourceforge.net/DTD/sodipodi-0.dtd"
   xmlns:inkscape="http://www.inkscape.org/namespaces/inkscape"
   height="512pt"
   viewBox="-79 0 512 512"
   width="512pt"
   version="1.1"
   id="svg3791"
   sodipodi:docname="file.svg"
   inkscape:version="0.92.4 (5da689c313, 2019-01-14)">
  <metadata
     id="metadata3797">
    <rdf:RDF>
      <cc:Work
         rdf:about="">
        <dc:format>image/svg+xml</dc:format>
        <dc:type
           rdf:resource="http://purl.org/dc/dcmitype/StillImage" />
      </cc:Work>
    </rdf:RDF>
  </metadata>
  <defs
     id="defs3795" />
  <sodipodi:namedview
     pagecolor="#ffffff"
     bordercolor="#666666"
     borderopacity="1"
     objecttolerance="10"
     gridtolerance="10"
     guidetolerance="10"
     inkscape:pageopacity="0"
     inkscape:pageshadow="2"
     inkscape:window-width="1366"
     inkscape:window-height="715"
     id="namedview3793"
     showgrid="false"
     inkscape:zoom="0.62717748"
     inkscape:cx="118.99224"
     inkscape:cy="289.78393"
     inkscape:window-x="-8"
     inkscape:window-y="-8"
     inkscape:window-maximized="1"
     inkscape:current-layer="svg3791" />
  <path
     d="m353.101562 485.515625h-353.101562v-485.515625h273.65625l79.445312 79.449219zm0 0"
     fill="#e3e4d8"
     id="path3777" />
  <path
     d="m273.65625 0v79.449219h79.445312zm0 0"
     fill="#d0cebd"
     id="path3779" />
  <path
     d="m0 353.101562h353.101562v158.898438h-353.101562zm0 0"
     fill="#baafa9"
     id="path3781" />
  <g
     fill="#fff"
     id="g3789">
    <path
       d="m105.929688 432.550781c0 14.628907-11.855469 26.484375-26.480469 26.484375-14.628907 0-26.484375-11.855468-26.484375-26.484375 0-14.625 11.855468-26.480469 26.484375-26.480469 14.625 0 26.480469 11.855469 26.480469 26.480469zm0 0"
       id="path3783" />
    <path
       d="m300.136719 432.550781c0 14.628907-11.855469 26.484375-26.480469 26.484375-14.628906 0-26.484375-11.855468-26.484375-26.484375 0-14.625 11.855469-26.480469 26.484375-26.480469 14.625 0 26.480469 11.855469 26.480469 26.480469zm0 0"
       id="path3785" />
    <path
       d="m203.035156 432.550781c0 14.628907-11.855468 26.484375-26.484375 26.484375-14.625 0-26.480469-11.855468-26.480469-26.484375 0-14.625 11.855469-26.480469 26.480469-26.480469 14.628907 0 26.484375 11.855469 26.484375 26.480469zm0 0"
       id="path3787" />
  </g>
</svg>
