<?xml version="1.0" encoding="iso-8859-1"?>
<!-- Generator: Adobe Illustrator 19.0.0, SVG Export Plug-In . SVG Version: 6.00 Build 0)  -->
<svg version="1.1" id="Layer_1" xmlns="http://www.w3.org/2000/svg" xmlns:xlink="http://www.w3.org/1999/xlink" x="0px" y="0px"
	 viewBox="0 0 473.654 473.654" style="enable-background:new 0 0 473.654 473.654;" xml:space="preserve">
<circle style="fill:#D7DABA;" cx="236.827" cy="236.827" r="236.827"/>
<path style="fill:#F7981D;" d="M144.31,93.736c-8.814,0-15.972,7.15-15.972,15.972v255.604c0,8.822,7.158,15.975,15.972,15.975
	h183.722c8.822,0,15.972-7.154,15.972-15.975V167.716l-77.005-73.98H144.31z"/>
<g>
	<path style="fill:#E88524;" d="M344.003,167.716h-61.03c-8.822,0-15.972-7.154-15.972-15.975V93.736L344.003,167.716z"/>
	<path style="fill:#E88524;" d="M263.816,271.613c0,10.183-8.253,18.436-18.436,18.436H110.815
		c-10.183,0-18.436-8.253-18.436-18.436v-56.318c0-10.183,8.253-18.436,18.436-18.436H245.38c10.183,0,18.436,8.253,18.436,18.436
		V271.613z"/>
</g>
<g>
	<path style="fill:#FFFFFF;" d="M178.202,259.874l-1.791-4.704h-15.235l-1.791,4.805c-0.699,1.874-1.298,3.141-1.791,3.796
		s-1.305,0.984-2.427,0.984c-0.954,0-1.795-0.348-2.532-1.047s-1.099-1.492-1.099-2.378c0-0.512,0.082-1.04,0.254-1.586
		s0.452-1.305,0.845-2.274l9.585-24.337c0.273-0.699,0.598-1.537,0.987-2.517c0.381-0.98,0.789-1.791,1.227-2.442
		c0.43-0.647,1.006-1.171,1.709-1.571c0.707-0.4,1.582-0.602,2.621-0.602c1.055,0,1.941,0.202,2.644,0.602
		c0.707,0.4,1.279,0.916,1.716,1.548c0.43,0.628,0.8,1.309,1.096,2.031c0.299,0.725,0.681,1.69,1.141,2.902l9.79,24.184
		c0.767,1.84,1.152,3.179,1.152,4.013c0,0.868-0.363,1.664-1.088,2.39c-0.722,0.725-1.597,1.088-2.618,1.088
		c-0.595,0-1.107-0.105-1.533-0.318c-0.426-0.213-0.785-0.501-1.073-0.868c-0.288-0.366-0.602-0.931-0.931-1.687
		C178.725,261.123,178.441,260.45,178.202,259.874z M163.173,249.467h11.196L168.718,234L163.173,249.467z"/>
	<path style="fill:#FFFFFF;" d="M192.184,260.129v-29.528c0-1.533,0.352-2.685,1.047-3.452c0.696-0.767,1.604-1.152,2.711-1.152
		c1.144,0,2.068,0.381,2.771,1.137c0.707,0.759,1.062,1.915,1.062,3.463v29.528c0,1.552-0.355,2.711-1.062,3.478
		c-0.703,0.767-1.63,1.152-2.771,1.152c-1.092,0-1.989-0.389-2.7-1.163C192.539,262.817,192.184,261.662,192.184,260.129z"/>
</g>
<g>
</g>
<g>
</g>
<g>
</g>
<g>
</g>
<g>
</g>
<g>
</g>
<g>
</g>
<g>
</g>
<g>
</g>
<g>
</g>
<g>
</g>
<g>
</g>
<g>
</g>
<g>
</g>
<g>
</g>
</svg>
