<?xml version="1.0" encoding="iso-8859-1"?>
<!-- Generator: Adobe Illustrator 19.0.0, SVG Export Plug-In . SVG Version: 6.00 Build 0)  -->
<svg version="1.1" id="Layer_1" xmlns="http://www.w3.org/2000/svg" xmlns:xlink="http://www.w3.org/1999/xlink" x="0px" y="0px"
	 viewBox="0 0 474.736 474.736" style="enable-background:new 0 0 474.736 474.736;" xml:space="preserve">
<circle style="fill:#D7DABA;" cx="237.368" cy="237.368" r="237.368"/>
<path style="fill:#E84849;" d="M144.655,93.958c-8.838,0-16.008,7.166-16.008,16.008v256.187c0,8.842,7.17,16.012,16.008,16.012
	h184.137c8.842,0,16.008-7.17,16.008-16.012V168.107l-77.177-74.149H144.655z"/>
<g>
	<path style="fill:#D43E3D;" d="M344.804,168.107h-61.169c-8.842,0-16.008-7.17-16.008-16.012V93.958L344.804,168.107z"/>
	<path style="fill:#D43E3D;" d="M264.433,272.237c0,10.206-8.272,18.478-18.474,18.478h-134.88
		c-10.206,0-18.474-8.272-18.474-18.478V215.79c0-10.206,8.268-18.474,18.474-18.474h134.876c10.202,0,18.474,8.268,18.474,18.474
		v56.447H264.433z"/>
</g>
<g>
	<path style="fill:#FFFFFF;" d="M161.911,260.475l-1.795-4.715h-15.27l-1.795,4.816c-0.701,1.878-1.301,3.148-1.795,3.804
		c-0.495,0.66-1.308,0.99-2.433,0.99c-0.956,0-1.799-0.352-2.537-1.049c-0.735-0.705-1.102-1.496-1.102-2.384
		c0-0.513,0.082-1.042,0.255-1.589c0.172-0.547,0.454-1.308,0.847-2.279l9.606-24.393c0.274-0.705,0.603-1.54,0.986-2.526
		c0.39-0.982,0.798-1.795,1.229-2.444c0.439-0.652,1.012-1.173,1.72-1.578c0.705-0.397,1.582-0.6,2.624-0.6
		c1.057,0,1.945,0.202,2.654,0.6c0.705,0.401,1.282,0.918,1.713,1.552c0.439,0.63,0.806,1.312,1.106,2.035
		c0.296,0.727,0.678,1.694,1.139,2.909l9.813,24.239c0.768,1.844,1.154,3.186,1.154,4.022c0,0.87-0.364,1.668-1.087,2.395
		c-0.727,0.727-1.604,1.091-2.627,1.091c-0.596,0-1.109-0.105-1.537-0.322c-0.427-0.214-0.787-0.502-1.076-0.87
		s-0.6-0.93-0.937-1.69C162.44,261.727,162.147,261.052,161.911,260.475z M146.844,250.044h11.222l-5.663-15.502L146.844,250.044z"
		/>
	<path style="fill:#FFFFFF;" d="M178.515,231.521l8.508,25.187l8.531-25.367c0.442-1.331,0.776-2.26,1.001-2.781
		c0.225-0.521,0.588-0.99,1.102-1.409c0.513-0.416,1.211-0.626,2.103-0.626c0.648,0,1.252,0.161,1.803,0.487
		c0.555,0.322,0.993,0.753,1.312,1.293c0.315,0.54,0.472,1.079,0.472,1.63c0,0.375-0.052,0.78-0.154,1.214s-0.232,0.862-0.386,1.282
		c-0.154,0.42-0.307,0.851-0.461,1.297l-9.097,24.546c-0.326,0.937-0.648,1.829-0.975,2.676c-0.326,0.847-0.701,1.589-1.128,2.23
		c-0.427,0.641-0.997,1.169-1.702,1.578c-0.708,0.409-1.578,0.615-2.601,0.615c-1.023,0-1.893-0.202-2.601-0.603
		c-0.705-0.397-1.282-0.93-1.713-1.589c-0.439-0.656-0.817-1.406-1.143-2.241c-0.326-0.84-0.648-1.728-0.975-2.665l-8.943-24.34
		c-0.154-0.446-0.311-0.881-0.472-1.308c-0.165-0.427-0.3-0.888-0.409-1.383c-0.112-0.499-0.169-0.915-0.169-1.256
		c0-0.87,0.352-1.664,1.049-2.384c0.697-0.72,1.582-1.076,2.639-1.076c1.301,0,2.219,0.394,2.751,1.188
		C177.402,228.508,177.949,229.778,178.515,231.521z"/>
	<path style="fill:#FFFFFF;" d="M209.362,260.73v-29.595c0-1.537,0.352-2.691,1.049-3.46c0.697-0.768,1.608-1.154,2.717-1.154
		c1.147,0,2.073,0.382,2.777,1.139c0.708,0.761,1.064,1.919,1.064,3.475v29.595c0,1.552-0.356,2.717-1.064,3.486
		c-0.705,0.768-1.634,1.154-2.777,1.154c-1.094,0-1.994-0.39-2.706-1.169C209.718,263.425,209.362,262.267,209.362,260.73z"/>
</g>
<g>
</g>
<g>
</g>
<g>
</g>
<g>
</g>
<g>
</g>
<g>
</g>
<g>
</g>
<g>
</g>
<g>
</g>
<g>
</g>
<g>
</g>
<g>
</g>
<g>
</g>
<g>
</g>
<g>
</g>
</svg>
