<?xml version="1.0" encoding="iso-8859-1"?>
<!-- Generator: Adobe Illustrator 19.0.0, SVG Export Plug-In . SVG Version: 6.00 Build 0)  -->
<svg version="1.1" id="Layer_1" xmlns="http://www.w3.org/2000/svg" xmlns:xlink="http://www.w3.org/1999/xlink" x="0px" y="0px"
	 viewBox="0 0 473.935 473.935" style="enable-background:new 0 0 473.935 473.935;" xml:space="preserve">
<circle style="fill:#D7DABA;" cx="236.967" cy="236.967" r="236.967"/>
<path style="fill:#396183;" d="M144.396,93.792c-8.823,0-15.981,7.154-15.981,15.981v255.759c0,8.827,7.158,15.981,15.981,15.981
	h183.827c8.827,0,15.981-7.154,15.981-15.981V167.815l-77.047-74.024H144.396z"/>
<g>
	<path style="fill:#355670;" d="M344.207,167.815h-61.066c-8.827,0-15.981-7.154-15.981-15.981V93.792L344.207,167.815z"/>
	<path style="fill:#355670;" d="M263.968,271.774c0,10.189-8.258,18.447-18.443,18.447H110.877
		c-10.189,0-18.443-8.258-18.443-18.447v-56.351c0-10.189,8.254-18.443,18.443-18.443h134.648c10.185,0,18.443,8.254,18.443,18.443
		V271.774z"/>
</g>
<g>
	<path style="fill:#FFFFFF;" d="M114.734,226.775h9.901c2.574,0,4.782,0.239,6.627,0.715s3.51,1.373,5.014,2.687
		c3.906,3.341,5.856,8.423,5.856,15.244c0,2.253-0.198,4.303-0.587,6.163c-0.389,1.86-0.999,3.532-1.815,5.025
		c-0.819,1.493-1.867,2.829-3.147,4.004c-1.007,0.905-2.107,1.631-3.3,2.174s-2.477,0.932-3.847,1.152
		c-1.373,0.221-2.922,0.333-4.644,0.333h-9.901c-1.381,0-2.421-0.21-3.121-0.625c-0.7-0.419-1.156-1.01-1.366-1.77
		c-0.217-0.756-0.322-1.74-0.322-2.952V231.43c0-1.639,0.367-2.821,1.1-3.555C111.917,227.142,113.096,226.775,114.734,226.775z
		 M117.675,232.784v25.452h5.755c1.261,0,2.253-0.034,2.967-0.101s1.459-0.236,2.226-0.513c0.767-0.277,1.433-0.655,1.994-1.152
		c2.541-2.148,3.813-5.848,3.813-11.102c0-3.697-0.558-6.47-1.673-8.314c-1.119-1.841-2.496-3.016-4.131-3.517
		c-1.635-0.501-3.615-0.756-5.934-0.756h-5.018V232.784z"/>
	<path style="fill:#FFFFFF;" d="M165.305,226.135c3.888,0,7.225,0.79,10.017,2.365c2.784,1.575,4.898,3.82,6.327,6.728
		c1.429,2.907,2.148,6.32,2.148,10.245c0,2.9-0.389,5.534-1.175,7.903c-0.786,2.369-1.961,4.427-3.529,6.163
		c-1.568,1.736-3.499,3.068-5.781,3.989c-2.282,0.921-4.905,1.381-7.854,1.381c-2.934,0-5.557-0.475-7.876-1.418
		c-2.32-0.95-4.254-2.279-5.807-4.004c-1.553-1.725-2.728-3.794-3.514-6.215c-0.797-2.421-1.19-5.04-1.19-7.854
		c0-2.881,0.412-5.527,1.242-7.929c0.827-2.406,2.024-4.449,3.592-6.14c1.568-1.691,3.48-2.978,5.729-3.877
		C159.883,226.573,162.438,226.135,165.305,226.135z M176.096,245.42c0-2.746-0.442-5.126-1.328-7.136
		c-0.887-2.009-2.152-3.532-3.798-4.565c-1.646-1.033-3.536-1.549-5.669-1.549c-1.515,0-2.919,0.284-4.206,0.857
		c-1.291,0.572-2.398,1.403-3.326,2.496c-0.932,1.093-1.665,2.485-2.2,4.183c-0.543,1.699-0.808,3.603-0.808,5.717
		c0,2.133,0.266,4.056,0.808,5.781c0.535,1.725,1.295,3.151,2.271,4.284c0.984,1.138,2.107,1.983,3.375,2.548
		c1.272,0.561,2.668,0.846,4.183,0.846c1.946,0,3.731-0.486,5.362-1.459c1.628-0.973,2.922-2.473,3.888-4.501
		C175.613,250.887,176.096,248.387,176.096,245.42z"/>
	<path style="fill:#FFFFFF;" d="M212.65,233.042h-8.288v27.24c0,1.568-0.352,2.732-1.048,3.491c-0.7,0.76-1.605,1.141-2.713,1.141
		c-1.126,0-2.043-0.385-2.75-1.152c-0.703-0.767-1.059-1.927-1.059-3.48v-27.24h-8.288c-1.298,0-2.26-0.284-2.889-0.857
		s-0.947-1.325-0.947-2.264c0-0.973,0.329-1.74,0.988-2.301c0.655-0.561,1.605-0.846,2.851-0.846h24.146
		c1.313,0,2.286,0.292,2.93,0.868c0.636,0.58,0.958,1.34,0.958,2.275c0,0.935-0.326,1.691-0.973,2.264
		C214.921,232.754,213.948,233.042,212.65,233.042z"/>
	<path style="fill:#FFFFFF;" d="M219.658,256.982l8.389-12.251l-7.061-10.896c-0.666-1.059-1.164-1.964-1.497-2.724
		c-0.329-0.76-0.498-1.486-0.498-2.185c0-0.715,0.322-1.358,0.958-1.931c0.644-0.572,1.422-0.857,2.342-0.857
		c1.055,0,1.882,0.311,2.466,0.935c0.591,0.625,1.403,1.777,2.443,3.465l5.628,9.107l6.009-9.107
		c0.494-0.767,0.917-1.422,1.265-1.968c0.352-0.546,0.688-0.999,1.014-1.355c0.326-0.355,0.688-0.625,1.085-0.804
		c0.4-0.18,0.864-0.269,1.396-0.269c0.954,0,1.736,0.284,2.339,0.857c0.606,0.572,0.909,1.25,0.909,2.032
		c0,1.141-0.659,2.694-1.968,4.655l-7.394,11.05l7.955,12.251c0.715,1.074,1.235,1.964,1.56,2.675
		c0.326,0.703,0.486,1.373,0.486,2.006c0,0.595-0.146,1.145-0.434,1.639c-0.288,0.494-0.7,0.887-1.227,1.175
		c-0.528,0.288-1.126,0.434-1.792,0.434c-0.715,0-1.325-0.15-1.815-0.445c-0.494-0.299-0.894-0.674-1.201-1.115
		c-0.307-0.442-0.876-1.306-1.714-2.582l-6.601-10.383l-7.008,10.69c-0.546,0.857-0.935,1.448-1.164,1.792
		c-0.236,0.344-0.509,0.674-0.834,0.999s-0.707,0.58-1.152,0.767c-0.445,0.187-0.965,0.281-1.56,0.281
		c-0.92,0-1.684-0.281-2.286-0.846c-0.606-0.561-0.909-1.381-0.909-2.455C217.791,260.35,218.412,258.808,219.658,256.982z"/>
</g>
<g>
</g>
<g>
</g>
<g>
</g>
<g>
</g>
<g>
</g>
<g>
</g>
<g>
</g>
<g>
</g>
<g>
</g>
<g>
</g>
<g>
</g>
<g>
</g>
<g>
</g>
<g>
</g>
<g>
</g>
</svg>
