<?xml version="1.0" encoding="iso-8859-1"?>
<!-- Generator: Adobe Illustrator 19.0.0, SVG Export Plug-In . SVG Version: 6.00 Build 0)  -->
<svg version="1.1" id="Layer_1" xmlns="http://www.w3.org/2000/svg" xmlns:xlink="http://www.w3.org/1999/xlink" x="0px" y="0px"
	 viewBox="0 0 473.654 473.654" style="enable-background:new 0 0 473.654 473.654;" xml:space="preserve">
<circle style="fill:#D7DABA;" cx="236.827" cy="236.827" r="236.827"/>
<path style="fill:#F7B52E;" d="M144.31,93.732c-8.818,0-15.972,7.154-15.972,15.975v255.604c0,8.822,7.154,15.972,15.972,15.972
	h183.718c8.822,0,15.972-7.15,15.972-15.972V167.712l-77.002-73.98H144.31z"/>
<g>
	<path style="fill:#DE9D27;" d="M344.003,167.716h-61.03c-8.822,0-15.972-7.15-15.972-15.972V93.732L344.003,167.716z"/>
	<path style="fill:#DE9D27;" d="M263.812,271.613c0,10.183-8.253,18.436-18.432,18.436H110.811
		c-10.183,0-18.432-8.253-18.432-18.436v-56.318c0-10.183,8.25-18.432,18.432-18.432H245.38c10.179,0,18.432,8.25,18.432,18.432
		V271.613z"/>
</g>
<g>
	<path style="fill:#FFFFFF;" d="M120.635,226.641h9.895c2.573,0,4.779,0.239,6.623,0.714c1.844,0.475,3.508,1.372,5.011,2.685
		c3.904,3.339,5.852,8.418,5.852,15.235c0,2.251-0.198,4.304-0.587,6.159c-0.389,1.855-0.998,3.53-1.814,5.022
		c-0.815,1.492-1.866,2.823-3.145,4.001c-1.006,0.905-2.105,1.627-3.298,2.173c-1.193,0.546-2.476,0.931-3.848,1.152
		c-1.369,0.221-2.917,0.333-4.637,0.333h-9.899c-1.38,0-2.42-0.209-3.119-0.625s-1.156-1.006-1.369-1.765
		c-0.213-0.759-0.318-1.743-0.318-2.954v-27.478c0-1.638,0.366-2.82,1.099-3.553C117.815,227.007,119.001,226.641,120.635,226.641z
		 M123.574,232.646v25.437h5.751c1.26,0,2.251-0.034,2.965-0.101c0.714-0.067,1.458-0.239,2.225-0.512s1.432-0.654,1.993-1.152
		c2.539-2.147,3.811-5.845,3.811-11.095c0-3.698-0.557-6.466-1.675-8.309c-1.114-1.84-2.491-3.014-4.128-3.515
		c-1.638-0.501-3.612-0.755-5.931-0.755h-5.011V232.646z"/>
	<path style="fill:#FFFFFF;" d="M182.525,258.21l-6.058-22.471l-6.137,22.471c-0.479,1.705-0.856,2.928-1.137,3.669
		c-0.284,0.74-0.774,1.406-1.473,1.993c-0.699,0.587-1.63,0.883-2.786,0.883c-0.939,0-1.709-0.176-2.315-0.524
		c-0.602-0.348-1.092-0.845-1.47-1.481s-0.684-1.399-0.92-2.274c-0.236-0.875-0.452-1.69-0.639-2.442l-6.238-25.231
		c-0.378-1.466-0.561-2.58-0.561-3.351c0-0.972,0.34-1.791,1.021-2.453s1.526-0.998,2.532-0.998c1.38,0,2.307,0.445,2.786,1.328
		c0.479,0.883,0.894,2.173,1.253,3.859l4.91,21.884l5.497-20.478c0.408-1.567,0.774-2.76,1.099-3.579
		c0.325-0.819,0.853-1.526,1.586-2.12s1.731-0.894,2.992-0.894c1.279,0,2.27,0.31,2.977,0.935c0.707,0.625,1.197,1.301,1.473,2.031
		c0.277,0.729,0.639,1.945,1.099,3.631l5.546,20.478l4.91-21.884c0.236-1.141,0.464-2.034,0.677-2.685
		c0.217-0.647,0.58-1.227,1.103-1.739c0.52-0.512,1.271-0.767,2.259-0.767c0.987,0,1.829,0.329,2.517,0.984
		c0.696,0.654,1.036,1.481,1.036,2.468c0,0.699-0.187,1.814-0.561,3.351l-6.241,25.227c-0.426,1.705-0.782,2.954-1.058,3.743
		c-0.284,0.793-0.759,1.485-1.432,2.083c-0.677,0.598-1.627,0.894-2.853,0.894c-1.159,0-2.09-0.292-2.786-0.868
		c-0.696-0.576-1.182-1.23-1.458-1.956C183.396,261.202,183.018,259.964,182.525,258.21z"/>
	<path style="fill:#FFFFFF;" d="M239.325,248.88v7.184c0,0.954-0.093,1.716-0.28,2.289c-0.187,0.572-0.535,1.088-1.032,1.548
		c-0.505,0.46-1.148,0.905-1.933,1.328c-2.266,1.227-4.446,2.12-6.544,2.685c-2.098,0.565-4.379,0.845-6.851,0.845
		c-2.883,0-5.505-0.445-7.872-1.328c-2.367-0.883-4.39-2.173-6.058-3.859c-1.668-1.687-2.951-3.732-3.848-6.137
		c-0.89-2.405-1.339-5.086-1.339-8.051c0-2.913,0.434-5.583,1.305-8.003s2.147-4.473,3.833-6.159s3.74-2.977,6.159-3.874
		c2.42-0.898,5.164-1.343,8.231-1.343c2.524,0,4.753,0.337,6.698,1.01s3.519,1.522,4.731,2.543c1.212,1.021,2.12,2.105,2.734,3.246
		c0.613,1.141,0.92,2.158,0.92,3.04c0,0.954-0.355,1.769-1.062,2.442c-0.703,0.673-1.552,1.01-2.543,1.01
		c-0.546,0-1.07-0.127-1.571-0.385c-0.505-0.254-0.927-0.613-1.268-1.073c-0.939-1.466-1.731-2.573-2.378-3.324
		c-0.647-0.752-1.518-1.38-2.621-1.892c-1.096-0.512-2.498-0.767-4.203-0.767c-1.758,0-3.324,0.303-4.704,0.909
		c-1.38,0.606-2.562,1.481-3.538,2.633c-0.984,1.152-1.731,2.562-2.251,4.229c-0.524,1.672-0.782,3.519-0.782,5.546
		c0,4.398,1.01,7.782,3.033,10.149c2.016,2.367,4.835,3.553,8.448,3.553c1.758,0,3.403-0.232,4.947-0.692
		c1.541-0.46,3.104-1.114,4.689-1.967v-6.084h-5.879c-1.414,0-2.483-0.213-3.205-0.639c-0.725-0.426-1.088-1.152-1.088-2.173
		c0-0.834,0.303-1.526,0.905-2.072c0.606-0.546,1.429-0.819,2.468-0.819h8.616c1.055,0,1.948,0.093,2.685,0.28
		c0.737,0.187,1.324,0.606,1.776,1.253C239.101,246.614,239.325,247.586,239.325,248.88z"/>
</g>
<g>
</g>
<g>
</g>
<g>
</g>
<g>
</g>
<g>
</g>
<g>
</g>
<g>
</g>
<g>
</g>
<g>
</g>
<g>
</g>
<g>
</g>
<g>
</g>
<g>
</g>
<g>
</g>
<g>
</g>
</svg>
