<?xml version="1.0" encoding="iso-8859-1"?>
<!-- Generator: Adobe Illustrator 19.0.0, SVG Export Plug-In . SVG Version: 6.00 Build 0)  -->
<svg version="1.1" id="Layer_1" xmlns="http://www.w3.org/2000/svg" xmlns:xlink="http://www.w3.org/1999/xlink" x="0px" y="0px"
	 viewBox="0 0 473.654 473.654" style="enable-background:new 0 0 473.654 473.654;" xml:space="preserve">
<circle style="fill:#D7DABA;" cx="236.827" cy="236.827" r="236.827"/>
<path style="fill:#D42F3B;" d="M144.31,93.732c-8.814,0-15.972,7.154-15.972,15.975v255.604c0,8.822,7.158,15.972,15.972,15.972
	h183.722c8.822,0,15.972-7.15,15.972-15.972V167.712l-77.005-73.98H144.31z"/>
<g>
	<path style="fill:#BC2B3B;" d="M344.003,167.716h-61.03c-8.822,0-15.972-7.15-15.972-15.972V93.732L344.003,167.716z"/>
	<path style="fill:#BC2B3B;" d="M263.816,271.613c0,10.183-8.253,18.436-18.436,18.436H110.815
		c-10.183,0-18.436-8.253-18.436-18.436v-56.318c0-10.183,8.253-18.432,18.436-18.432H245.38c10.183,0,18.436,8.25,18.436,18.432
		V271.613z"/>
</g>
<g>
	<path style="fill:#FFFFFF;" d="M134.95,226.641h9.895c2.573,0,4.779,0.239,6.623,0.714c1.844,0.475,3.508,1.372,5.011,2.685
		c3.904,3.339,5.852,8.418,5.852,15.235c0,2.251-0.198,4.304-0.587,6.159c-0.389,1.855-0.998,3.53-1.814,5.022
		s-1.866,2.823-3.145,4.001c-1.006,0.905-2.105,1.627-3.298,2.173c-1.193,0.546-2.476,0.931-3.848,1.152
		c-1.369,0.221-2.917,0.333-4.637,0.333h-9.895c-1.38,0-2.42-0.209-3.119-0.625c-0.699-0.415-1.156-1.006-1.369-1.765
		c-0.213-0.759-0.318-1.743-0.318-2.954v-27.478c0-1.638,0.366-2.82,1.099-3.553C132.134,227.007,133.312,226.641,134.95,226.641z
		 M137.889,232.646v25.437h5.751c1.26,0,2.251-0.034,2.965-0.101c0.714-0.067,1.458-0.239,2.225-0.512
		c0.767-0.273,1.432-0.654,1.993-1.152c2.539-2.147,3.811-5.845,3.811-11.095c0-3.698-0.557-6.466-1.675-8.309
		c-1.114-1.84-2.491-3.014-4.128-3.515c-1.638-0.501-3.612-0.755-5.931-0.755h-5.011V232.646z"/>
	<path style="fill:#FFFFFF;" d="M167.619,256.83l8.384-12.243l-7.057-10.89c-0.666-1.058-1.167-1.963-1.492-2.722
		c-0.337-0.759-0.501-1.485-0.501-2.184c0-0.714,0.318-1.357,0.961-1.93c0.636-0.572,1.417-0.856,2.337-0.856
		c1.055,0,1.877,0.31,2.468,0.935c0.583,0.625,1.399,1.776,2.438,3.463l5.624,9.102l6.006-9.102
		c0.494-0.767,0.916-1.421,1.268-1.967c0.348-0.546,0.684-0.998,1.01-1.354c0.325-0.355,0.688-0.624,1.088-0.804
		c0.396-0.179,0.86-0.269,1.391-0.269c0.954,0,1.735,0.284,2.341,0.856c0.602,0.572,0.905,1.249,0.905,2.031
		c0,1.141-0.658,2.692-1.967,4.652l-7.389,11.043l7.95,12.243c0.714,1.073,1.234,1.963,1.559,2.67s0.486,1.376,0.486,2.008
		c0,0.598-0.146,1.141-0.434,1.638s-0.699,0.886-1.227,1.174c-0.527,0.288-1.126,0.434-1.791,0.434c-0.714,0-1.324-0.15-1.814-0.449
		s-0.894-0.669-1.2-1.111c-0.307-0.441-0.875-1.305-1.713-2.58l-6.597-10.377l-7.004,10.684c-0.546,0.853-0.931,1.447-1.167,1.791
		c-0.228,0.34-0.505,0.673-0.83,0.998s-0.707,0.58-1.152,0.767c-0.445,0.187-0.965,0.28-1.559,0.28c-0.92,0-1.683-0.28-2.289-0.845
		c-0.602-0.561-0.905-1.38-0.905-2.453C165.753,260.196,166.374,258.655,167.619,256.83z"/>
	<path style="fill:#FFFFFF;" d="M223.017,232.493h-14.955v9.585h12.501c1.159,0,2.023,0.258,2.592,0.778
		c0.572,0.52,0.856,1.215,0.856,2.083s-0.288,1.559-0.868,2.072c-0.58,0.512-1.44,0.767-2.58,0.767h-12.501v12.348
		c0,1.567-0.355,2.73-1.062,3.489c-0.703,0.759-1.615,1.137-2.722,1.137c-1.126,0-2.042-0.385-2.749-1.152
		c-0.703-0.767-1.058-1.926-1.058-3.478v-28.828c0-1.092,0.161-1.982,0.486-2.67c0.325-0.688,0.83-1.193,1.522-1.507
		c0.688-0.314,1.571-0.471,2.644-0.471h17.894c1.208,0,2.109,0.269,2.696,0.804c0.591,0.538,0.883,1.242,0.883,2.109
		c0,0.886-0.292,1.597-0.883,2.135C225.126,232.224,224.225,232.493,223.017,232.493z"/>
</g>
<g>
</g>
<g>
</g>
<g>
</g>
<g>
</g>
<g>
</g>
<g>
</g>
<g>
</g>
<g>
</g>
<g>
</g>
<g>
</g>
<g>
</g>
<g>
</g>
<g>
</g>
<g>
</g>
<g>
</g>
</svg>
