<?xml version="1.0" encoding="iso-8859-1"?>
<!-- Generator: Adobe Illustrator 19.0.0, SVG Export Plug-In . SVG Version: 6.00 Build 0)  -->
<svg version="1.1" id="Layer_1" xmlns="http://www.w3.org/2000/svg" xmlns:xlink="http://www.w3.org/1999/xlink" x="0px" y="0px"
	 viewBox="0 0 473.654 473.654" style="enable-background:new 0 0 473.654 473.654;" xml:space="preserve">
<circle style="fill:#D7DABA;" cx="236.827" cy="236.827" r="236.827"/>
<path style="fill:#E79E2D;" d="M144.31,93.732c-8.814,0-15.972,7.154-15.972,15.975v255.604c0,8.822,7.158,15.972,15.972,15.972
	h183.722c8.822,0,15.972-7.15,15.972-15.972V167.712l-77.005-73.98H144.31z"/>
<g>
	<path style="fill:#D58A29;" d="M344.003,167.716h-61.03c-8.822,0-15.972-7.15-15.972-15.972V93.732L344.003,167.716z"/>
	<path style="fill:#D58A29;" d="M263.816,271.613c0,10.183-8.253,18.436-18.436,18.436H110.815
		c-10.183,0-18.436-8.253-18.436-18.436v-56.318c0-10.183,8.253-18.432,18.436-18.432H245.38c10.183,0,18.436,8.25,18.436,18.432
		V271.613z"/>
</g>
<g>
	<path style="fill:#FFFFFF;" d="M153.558,232.493h-17.101v9.203h15.747c1.159,0,2.023,0.258,2.592,0.778
		c0.572,0.52,0.856,1.204,0.856,2.057c0,0.853-0.28,1.548-0.845,2.083c-0.565,0.535-1.432,0.804-2.606,0.804h-15.744v10.662h17.688
		c1.193,0,2.094,0.277,2.696,0.83c0.606,0.553,0.909,1.29,0.909,2.21c0,0.886-0.303,1.608-0.909,2.161
		c-0.602,0.553-1.5,0.83-2.696,0.83h-20.631c-1.653,0-2.842-0.366-3.568-1.099c-0.722-0.733-1.084-1.918-1.084-3.553v-28.166
		c0-1.092,0.161-1.982,0.486-2.67c0.325-0.688,0.834-1.193,1.518-1.507c0.696-0.314,1.574-0.471,2.648-0.471h20.04
		c1.208,0,2.105,0.269,2.7,0.804c0.583,0.538,0.879,1.242,0.879,2.109c0,0.886-0.295,1.597-0.879,2.135
		C155.667,232.224,154.77,232.493,153.558,232.493z"/>
	<path style="fill:#FFFFFF;" d="M178.329,249.519h-6.952v10.609c0,1.518-0.359,2.666-1.073,3.452s-1.619,1.174-2.711,1.174
		c-1.144,0-2.064-0.389-2.76-1.163c-0.696-0.774-1.047-1.915-1.047-3.414v-28.884c0-1.672,0.385-2.865,1.152-3.579
		c0.767-0.714,1.986-1.073,3.657-1.073h9.738c2.883,0,5.093,0.221,6.645,0.666c1.533,0.426,2.861,1.133,3.975,2.12
		c1.118,0.987,1.963,2.199,2.547,3.631c0.583,1.432,0.868,3.04,0.868,4.832c0,3.818-1.174,6.709-3.526,8.68
		C186.489,248.54,182.985,249.519,178.329,249.519z M176.489,232.34h-5.112v11.454h5.112c1.791,0,3.287-0.187,4.484-0.561
		c1.204-0.374,2.117-0.987,2.749-1.84c0.632-0.853,0.946-1.967,0.946-3.351c0-1.653-0.486-2.999-1.458-4.039
		C182.121,232.893,179.881,232.34,176.489,232.34z"/>
	<path style="fill:#FFFFFF;" d="M227.183,252.87c0,2.266-0.583,4.304-1.75,6.11c-1.171,1.806-2.879,3.22-5.127,4.244
		c-2.247,1.025-4.914,1.533-8.003,1.533c-3.698,0-6.75-0.699-9.151-2.098c-1.705-1.006-3.089-2.348-4.151-4.028
		c-1.066-1.679-1.601-3.31-1.601-4.895c0-0.92,0.322-1.709,0.957-2.363c0.643-0.654,1.455-0.984,2.442-0.984
		c0.8,0,1.481,0.254,2.034,0.767c0.55,0.512,1.025,1.268,1.417,2.274c0.479,1.193,0.995,2.188,1.548,2.992
		c0.55,0.8,1.331,1.462,2.337,1.982c1.006,0.52,2.326,0.778,3.964,0.778c2.251,0,4.08-0.524,5.482-1.571
		c1.41-1.047,2.109-2.356,2.109-3.923c0-1.245-0.381-2.255-1.141-3.029c-0.755-0.778-1.739-1.369-2.936-1.776
		c-1.204-0.408-2.808-0.845-4.82-1.305c-2.693-0.628-4.944-1.369-6.765-2.21c-1.81-0.845-3.253-1.993-4.315-3.452
		c-1.066-1.458-1.601-3.268-1.601-5.434c0-2.061,0.561-3.897,1.687-5.497c1.126-1.601,2.752-2.835,4.884-3.695
		c2.132-0.86,4.633-1.29,7.517-1.29c2.3,0,4.289,0.284,5.972,0.856c1.675,0.572,3.07,1.328,4.177,2.274s1.918,1.941,2.427,2.977
		s0.767,2.053,0.767,3.04c0,0.905-0.318,1.716-0.961,2.442c-0.636,0.725-1.436,1.088-2.39,1.088c-0.868,0-1.529-0.217-1.978-0.651
		c-0.452-0.434-0.942-1.148-1.473-2.135c-0.684-1.414-1.5-2.517-2.453-3.31c-0.954-0.793-2.487-1.189-4.6-1.189
		c-1.96,0-3.538,0.43-4.746,1.29c-1.197,0.86-1.799,1.896-1.799,3.108c0,0.752,0.206,1.399,0.613,1.945
		c0.408,0.546,0.972,1.013,1.687,1.406s1.44,0.699,2.173,0.92s1.945,0.546,3.631,0.972c2.113,0.494,4.024,1.04,5.74,1.638
		c1.709,0.598,3.171,1.32,4.368,2.173c1.204,0.853,2.139,1.93,2.812,3.235C226.846,249.377,227.183,250.978,227.183,252.87z"/>
</g>
<g>
</g>
<g>
</g>
<g>
</g>
<g>
</g>
<g>
</g>
<g>
</g>
<g>
</g>
<g>
</g>
<g>
</g>
<g>
</g>
<g>
</g>
<g>
</g>
<g>
</g>
<g>
</g>
<g>
</g>
</svg>
