<?xml version="1.0" encoding="iso-8859-1"?>
<!-- Generator: Adobe Illustrator 19.0.0, SVG Export Plug-In . SVG Version: 6.00 Build 0)  -->
<svg version="1.1" id="Layer_1" xmlns="http://www.w3.org/2000/svg" xmlns:xlink="http://www.w3.org/1999/xlink" x="0px" y="0px"
	 viewBox="0 0 473.935 473.935" style="enable-background:new 0 0 473.935 473.935;" xml:space="preserve">
<circle style="fill:#D7DABA;" cx="236.967" cy="236.967" r="236.967"/>
<path style="fill:#837C72;" d="M144.399,93.788c-8.827,0-15.981,7.154-15.981,15.981v255.759c0,8.827,7.154,15.981,15.981,15.981
	h183.823c8.827,0,15.981-7.154,15.981-15.981V167.812l-77.047-74.024H144.399z"/>
<g>
	<path style="fill:#6D6254;" d="M344.207,167.812h-61.066c-8.827,0-15.981-7.154-15.981-15.981V93.788L344.207,167.812z"/>
	<path style="fill:#6D6254;" d="M263.968,271.77c0,10.189-8.258,18.447-18.44,18.447H110.877c-10.189,0-18.44-8.258-18.44-18.447
		v-56.351c0-10.189,8.251-18.44,18.44-18.44h134.652c10.181,0,18.44,8.251,18.44,18.44V271.77z"/>
</g>
<g>
	<path style="fill:#FFFFFF;" d="M155.307,232.631h-17.111v9.209h15.757c1.16,0,2.024,0.258,2.593,0.782
		c0.572,0.52,0.857,1.205,0.857,2.058s-0.281,1.545-0.846,2.088c-0.561,0.535-1.433,0.804-2.608,0.804h-15.757v10.668h17.699
		c1.194,0,2.095,0.277,2.698,0.831c0.606,0.554,0.909,1.295,0.909,2.215c0,0.883-0.303,1.609-0.909,2.163
		c-0.602,0.55-1.5,0.831-2.698,0.831h-20.643c-1.654,0-2.844-0.37-3.57-1.1c-0.722-0.73-1.085-1.92-1.085-3.555V231.43
		c0-1.093,0.161-1.983,0.486-2.672s0.834-1.194,1.519-1.508c0.696-0.314,1.575-0.471,2.649-0.471h20.052
		c1.209,0,2.107,0.269,2.702,0.804c0.584,0.539,0.879,1.242,0.879,2.11c0,0.887-0.296,1.598-0.879,2.137
		C157.417,232.361,156.515,232.631,155.307,232.631z"/>
	<path style="fill:#FFFFFF;" d="M164.156,256.982l8.389-12.251l-7.061-10.896c-0.666-1.059-1.167-1.964-1.493-2.724
		c-0.337-0.76-0.501-1.486-0.501-2.185c0-0.715,0.318-1.358,0.962-1.931c0.636-0.572,1.418-0.857,2.339-0.857
		c1.055,0,1.878,0.311,2.47,0.935c0.584,0.625,1.399,1.777,2.44,3.465l5.628,9.107l6.009-9.107c0.494-0.767,0.917-1.422,1.268-1.968
		c0.348-0.546,0.685-0.999,1.01-1.355s0.688-0.625,1.089-0.804c0.397-0.18,0.861-0.269,1.392-0.269c0.954,0,1.736,0.284,2.342,0.857
		c0.602,0.572,0.906,1.25,0.906,2.032c0,1.141-0.659,2.694-1.968,4.655l-7.394,11.05l7.955,12.251
		c0.715,1.074,1.235,1.964,1.56,2.675c0.326,0.703,0.486,1.373,0.486,2.006c0,0.595-0.146,1.145-0.434,1.639
		c-0.288,0.494-0.7,0.887-1.227,1.175c-0.528,0.288-1.126,0.434-1.792,0.434c-0.715,0-1.325-0.15-1.815-0.445
		c-0.494-0.299-0.894-0.674-1.201-1.115c-0.307-0.442-0.876-1.306-1.714-2.582l-6.601-10.383l-7.008,10.69
		c-0.546,0.857-0.932,1.448-1.167,1.792c-0.228,0.344-0.505,0.674-0.831,0.999s-0.707,0.58-1.152,0.767
		c-0.445,0.187-0.965,0.281-1.56,0.281c-0.92,0-1.684-0.281-2.29-0.846c-0.602-0.561-0.906-1.381-0.906-2.455
		C162.289,260.35,162.91,258.808,164.156,256.982z"/>
	<path style="fill:#FFFFFF;" d="M221.888,232.631h-17.111v9.209h15.757c1.16,0,2.024,0.258,2.597,0.782
		c0.569,0.52,0.857,1.205,0.857,2.058s-0.281,1.545-0.846,2.088c-0.561,0.535-1.433,0.804-2.608,0.804h-15.757v10.668h17.699
		c1.194,0,2.095,0.277,2.702,0.831c0.602,0.554,0.905,1.295,0.905,2.215c0,0.883-0.303,1.609-0.905,2.163
		c-0.606,0.55-1.504,0.831-2.702,0.831h-20.643c-1.654,0-2.844-0.37-3.566-1.1c-0.726-0.73-1.089-1.92-1.089-3.555V231.43
		c0-1.093,0.161-1.983,0.486-2.672c0.326-0.688,0.831-1.194,1.523-1.508c0.688-0.314,1.572-0.471,2.645-0.471h20.052
		c1.209,0,2.11,0.269,2.698,0.804c0.591,0.539,0.883,1.242,0.883,2.11c0,0.887-0.292,1.598-0.883,2.137
		C224.002,232.361,223.097,232.631,221.888,232.631z"/>
</g>
<g>
</g>
<g>
</g>
<g>
</g>
<g>
</g>
<g>
</g>
<g>
</g>
<g>
</g>
<g>
</g>
<g>
</g>
<g>
</g>
<g>
</g>
<g>
</g>
<g>
</g>
<g>
</g>
<g>
</g>
</svg>
