<?xml version="1.0" encoding="iso-8859-1"?>
<!-- Generator: Adobe Illustrator 19.0.0, SVG Export Plug-In . SVG Version: 6.00 Build 0)  -->
<svg version="1.1" id="Layer_1" xmlns="http://www.w3.org/2000/svg" xmlns:xlink="http://www.w3.org/1999/xlink" x="0px" y="0px"
	 viewBox="0 0 473.935 473.935" style="enable-background:new 0 0 473.935 473.935;" xml:space="preserve">
<circle style="fill:#D7DABA;" cx="236.967" cy="236.967" r="236.967"/>
<path style="fill:#A82E6C;" d="M144.392,93.788c-8.819,0-15.981,7.154-15.981,15.981v255.759c0,8.827,7.162,15.981,15.981,15.981
	h183.83c8.827,0,15.981-7.154,15.981-15.981V167.812l-77.047-74.024H144.392z"/>
<g>
	<path style="fill:#932B63;" d="M344.207,167.812h-61.066c-8.827,0-15.981-7.154-15.981-15.981V93.788L344.207,167.812z"/>
	<path style="fill:#932B63;" d="M263.968,271.77c0,10.189-8.258,18.447-18.447,18.447H110.877c-10.189,0-18.447-8.258-18.447-18.447
		v-56.351c0-10.189,8.258-18.44,18.447-18.44h134.645c10.189,0,18.447,8.251,18.447,18.44V271.77z"/>
</g>
<path style="fill:#FFFFFF;" d="M169.103,230.737v10.743h16.397v-10.743c0-1.534,0.344-2.687,1.036-3.454
	c0.688-0.767,1.598-1.152,2.724-1.152c1.145,0,2.069,0.382,2.773,1.138c0.707,0.76,1.063,1.916,1.063,3.465v29.545
	c0,1.553-0.359,2.713-1.074,3.48c-0.715,0.767-1.639,1.152-2.761,1.152c-1.145,0-2.054-0.389-2.735-1.164
	c-0.685-0.778-1.021-1.934-1.021-3.469v-12.61h-16.397v12.61c0,1.553-0.359,2.713-1.074,3.48c-0.715,0.767-1.639,1.152-2.761,1.152
	c-1.145,0-2.054-0.389-2.735-1.164c-0.685-0.778-1.021-1.934-1.021-3.469v-29.545c0-1.534,0.337-2.687,1.01-3.454
	c0.677-0.767,1.594-1.152,2.75-1.152c1.145,0,2.069,0.382,2.773,1.138C168.747,228.032,169.103,229.188,169.103,230.737z"/>
<g>
</g>
<g>
</g>
<g>
</g>
<g>
</g>
<g>
</g>
<g>
</g>
<g>
</g>
<g>
</g>
<g>
</g>
<g>
</g>
<g>
</g>
<g>
</g>
<g>
</g>
<g>
</g>
<g>
</g>
</svg>
