<?xml version="1.0" encoding="iso-8859-1"?>
<!-- Generator: Adobe Illustrator 19.0.0, SVG Export Plug-In . SVG Version: 6.00 Build 0)  -->
<svg version="1.1" id="Layer_1" xmlns="http://www.w3.org/2000/svg" xmlns:xlink="http://www.w3.org/1999/xlink" x="0px" y="0px"
	 viewBox="0 0 473.935 473.935" style="enable-background:new 0 0 473.935 473.935;" xml:space="preserve">
<circle style="fill:#D7DABA;" cx="236.967" cy="236.967" r="236.967"/>
<path style="fill:#A14443;" d="M144.392,93.788c-8.819,0-15.981,7.154-15.981,15.981v255.759c0,8.827,7.162,15.981,15.981,15.981
	h183.83c8.827,0,15.981-7.154,15.981-15.981V167.812l-77.047-74.024H144.392z"/>
<g>
	<path style="fill:#883637;" d="M344.207,167.812h-61.066c-8.827,0-15.981-7.154-15.981-15.981V93.788L344.207,167.812z"/>
	<path style="fill:#883637;" d="M263.968,271.77c0,10.189-8.258,18.447-18.447,18.447H110.877c-10.189,0-18.447-8.258-18.447-18.447
		v-56.351c0-10.189,8.258-18.44,18.447-18.44h134.645c10.189,0,18.447,8.251,18.447,18.44V271.77z"/>
</g>
<g>
	<path style="fill:#FFFFFF;" d="M136.601,260.283v-29.545c0-1.534,0.352-2.687,1.048-3.454c0.696-0.767,1.605-1.152,2.713-1.152
		c1.145,0,2.069,0.382,2.776,1.138c0.703,0.76,1.059,1.916,1.059,3.465v29.545c0,1.553-0.355,2.713-1.059,3.48
		c-0.707,0.767-1.635,1.152-2.776,1.152c-1.093,0-1.991-0.389-2.698-1.164C136.953,262.973,136.601,261.817,136.601,260.283z"/>
	<path style="fill:#FFFFFF;" d="M184.639,252.428c0,1.19-0.296,2.485-0.879,3.873c-0.591,1.392-1.515,2.754-2.776,4.094
		s-2.874,2.425-4.834,3.263c-1.961,0.838-4.247,1.254-6.855,1.254c-1.976,0-3.779-0.191-5.396-0.561
		c-1.616-0.37-3.091-0.958-4.415-1.755c-1.321-0.789-2.537-1.833-3.645-3.132c-0.992-1.175-1.833-2.496-2.533-3.951
		c-0.7-1.463-1.224-3.02-1.572-4.67c-0.352-1.65-0.528-3.413-0.528-5.268c0-3.02,0.438-5.721,1.317-8.108s2.137-4.43,3.775-6.125
		c1.639-1.695,3.555-2.99,5.755-3.877c2.2-0.887,4.546-1.328,7.035-1.328c3.038,0,5.736,0.606,8.108,1.815s4.187,2.709,5.448,4.49
		s1.893,3.465,1.893,5.051c0,0.868-0.307,1.639-0.92,2.301c-0.614,0.662-1.355,0.999-2.226,0.999c-0.973,0-1.703-0.232-2.185-0.692
		c-0.49-0.46-1.029-1.253-1.628-2.38c-0.992-1.86-2.152-3.248-3.491-4.168s-2.99-1.381-4.95-1.381c-3.121,0-5.605,1.186-7.457,3.555
		c-1.848,2.369-2.773,5.74-2.773,10.103c0,2.915,0.408,5.343,1.227,7.278c0.819,1.934,1.976,3.375,3.48,4.333
		c1.504,0.958,3.255,1.433,5.268,1.433c2.181,0,4.03-0.543,5.534-1.624c1.512-1.085,2.649-2.675,3.416-4.771
		c0.326-0.988,0.722-1.792,1.201-2.417c0.479-0.621,1.246-0.932,2.301-0.932c0.902,0,1.68,0.318,2.327,0.947
		C184.309,250.703,184.639,251.493,184.639,252.428z"/>
	<path style="fill:#FFFFFF;" d="M219.961,253.016c0,2.268-0.584,4.307-1.755,6.114c-1.167,1.804-2.877,3.222-5.126,4.247
		s-4.917,1.534-8.007,1.534c-3.701,0-6.754-0.703-9.156-2.099c-1.706-1.01-3.091-2.35-4.157-4.026
		c-1.063-1.68-1.598-3.315-1.598-4.902c0-0.92,0.318-1.71,0.962-2.365c0.636-0.659,1.452-0.988,2.44-0.988
		c0.801,0,1.482,0.254,2.032,0.767c0.554,0.513,1.029,1.272,1.422,2.275c0.479,1.194,0.995,2.189,1.545,2.993
		c0.554,0.804,1.336,1.463,2.342,1.979c1.007,0.524,2.327,0.782,3.966,0.782c2.253,0,4.079-0.528,5.489-1.572
		c1.403-1.051,2.107-2.361,2.107-3.929c0-1.246-0.382-2.256-1.137-3.031c-0.76-0.778-1.74-1.369-2.945-1.781
		c-1.197-0.408-2.806-0.846-4.819-1.306c-2.694-0.629-4.95-1.366-6.765-2.215c-1.819-0.842-3.259-1.994-4.326-3.45
		c-1.063-1.463-1.598-3.274-1.598-5.437c0-2.062,0.561-3.899,1.688-5.5c1.126-1.602,2.754-2.836,4.887-3.697
		s4.636-1.291,7.521-1.291c2.301,0,4.292,0.284,5.972,0.857s3.076,1.328,4.183,2.275s1.92,1.942,2.428,2.978
		c0.509,1.036,0.767,2.054,0.767,3.042c0,0.906-0.322,1.717-0.958,2.443c-0.644,0.726-1.441,1.089-2.395,1.089
		c-0.868,0-1.53-0.217-1.983-0.651c-0.449-0.434-0.939-1.149-1.471-2.137c-0.685-1.414-1.5-2.518-2.455-3.311
		c-0.954-0.793-2.488-1.19-4.602-1.19c-1.961,0-3.543,0.43-4.745,1.291c-1.205,0.861-1.804,1.897-1.804,3.109
		c0,0.752,0.206,1.399,0.614,1.946c0.408,0.546,0.973,1.014,1.688,1.407c0.715,0.393,1.441,0.7,2.174,0.921
		c0.733,0.221,1.946,0.546,3.633,0.973c2.114,0.498,4.03,1.036,5.74,1.639c1.717,0.599,3.173,1.325,4.378,2.174
		c1.197,0.853,2.137,1.934,2.814,3.233C219.624,249.529,219.961,251.126,219.961,253.016z"/>
</g>
<g>
</g>
<g>
</g>
<g>
</g>
<g>
</g>
<g>
</g>
<g>
</g>
<g>
</g>
<g>
</g>
<g>
</g>
<g>
</g>
<g>
</g>
<g>
</g>
<g>
</g>
<g>
</g>
<g>
</g>
</svg>
