<?xml version="1.0" encoding="iso-8859-1"?>
<!-- Generator: Adobe Illustrator 19.0.0, SVG Export Plug-In . SVG Version: 6.00 Build 0)  -->
<svg version="1.1" id="Layer_1" xmlns="http://www.w3.org/2000/svg" xmlns:xlink="http://www.w3.org/1999/xlink" x="0px" y="0px"
	 viewBox="0 0 473.654 473.654" style="enable-background:new 0 0 473.654 473.654;" xml:space="preserve">
<circle style="fill:#D7DABA;" cx="236.827" cy="236.827" r="236.827"/>
<path style="fill:#43ACDB;" d="M144.31,93.732c-8.818,0-15.972,7.154-15.972,15.975v255.604c0,8.822,7.154,15.972,15.972,15.972
	h183.718c8.822,0,15.972-7.15,15.972-15.972V167.712l-77.002-73.98H144.31z"/>
<g>
	<path style="fill:#3A9EC1;" d="M344.003,167.716h-61.03c-8.822,0-15.972-7.15-15.972-15.972V93.732L344.003,167.716z"/>
	<path style="fill:#3A9EC1;" d="M263.812,271.613c0,10.183-8.253,18.436-18.432,18.436H110.811
		c-10.183,0-18.432-8.253-18.432-18.436v-56.318c0-10.183,8.25-18.436,18.432-18.436H245.38c10.179,0,18.432,8.253,18.432,18.436
		V271.613z"/>
</g>
<g>
	<path style="fill:#FFFFFF;" d="M139.082,258.468l-6.006-23.877v25.87c0,1.432-0.318,2.506-0.961,3.22
		c-0.636,0.714-1.485,1.073-2.543,1.073c-1.021,0-1.859-0.355-2.506-1.062c-0.647-0.707-0.972-1.788-0.972-3.235v-29.655
		c0-1.638,0.426-2.737,1.279-3.31s2.001-0.856,3.452-0.856h2.352c1.414,0,2.442,0.127,3.078,0.385
		c0.643,0.254,1.114,0.714,1.421,1.38c0.307,0.666,0.658,1.746,1.047,3.246l5.445,20.527l5.445-20.527
		c0.389-1.5,0.74-2.58,1.047-3.246c0.307-0.666,0.778-1.126,1.421-1.38c0.636-0.254,1.664-0.385,3.078-0.385h2.352
		c1.451,0,2.599,0.284,3.452,0.856s1.279,1.675,1.279,3.31v29.655c0,1.432-0.322,2.505-0.957,3.22
		c-0.643,0.714-1.496,1.073-2.573,1.073c-1.006,0-1.832-0.359-2.479-1.073c-0.647-0.714-0.972-1.791-0.972-3.22v-25.87
		l-6.006,23.877c-0.389,1.552-0.711,2.689-0.957,3.414s-0.703,1.384-1.369,1.982c-0.666,0.598-1.586,0.894-2.76,0.894
		c-0.886,0-1.638-0.191-2.251-0.576s-1.092-0.871-1.432-1.47c-0.34-0.598-0.61-1.257-0.808-1.982
		C139.486,260.005,139.284,259.25,139.082,258.468z"/>
	<path style="fill:#FFFFFF;" d="M184.585,249.519h-6.956v10.609c0,1.518-0.359,2.666-1.073,3.452
		c-0.714,0.785-1.619,1.174-2.711,1.174c-1.144,0-2.064-0.389-2.76-1.163c-0.696-0.774-1.047-1.915-1.047-3.414v-28.884
		c0-1.672,0.385-2.865,1.152-3.579s1.986-1.073,3.657-1.073h9.738c2.883,0,5.093,0.221,6.645,0.666
		c1.533,0.426,2.861,1.133,3.975,2.12c1.118,0.987,1.963,2.199,2.547,3.631c0.583,1.432,0.868,3.04,0.868,4.832
		c0,3.818-1.174,6.709-3.526,8.68C192.741,248.54,189.237,249.519,184.585,249.519z M182.745,232.34h-5.116v11.454h5.112
		c1.791,0,3.287-0.187,4.484-0.561c1.204-0.374,2.117-0.987,2.749-1.84c0.632-0.853,0.946-1.967,0.946-3.351
		c0-1.653-0.486-2.999-1.458-4.039C188.374,232.893,186.137,232.34,182.745,232.34z"/>
	<path style="fill:#FFFFFF;" d="M219.199,260.869v-4.753h-12.834c-1.619,0-2.835-0.366-3.646-1.099
		c-0.808-0.733-1.212-1.728-1.212-2.992c0-0.322,0.06-0.651,0.179-0.984c0.12-0.333,0.299-0.681,0.539-1.047
		c0.239-0.366,0.486-0.718,0.74-1.062c0.254-0.344,0.568-0.759,0.946-1.253l13.548-18.126c0.886-1.193,1.615-2.057,2.184-2.595
		c0.572-0.538,1.26-0.804,2.061-0.804c2.588,0,3.885,1.481,3.885,4.446v19.786h1.099c1.313,0,2.363,0.179,3.16,0.538
		c0.789,0.359,1.185,1.141,1.185,2.352c0,0.987-0.325,1.709-0.972,2.161c-0.647,0.452-1.619,0.677-2.913,0.677h-1.559v4.753
		c0,1.313-0.288,2.289-0.868,2.928c-0.58,0.639-1.354,0.957-2.326,0.957c-0.954,0-1.728-0.329-2.311-0.984
		C219.491,263.116,219.199,262.148,219.199,260.869z M208.205,250.387h10.991v-14.854L208.205,250.387z"/>
</g>
<g>
</g>
<g>
</g>
<g>
</g>
<g>
</g>
<g>
</g>
<g>
</g>
<g>
</g>
<g>
</g>
<g>
</g>
<g>
</g>
<g>
</g>
<g>
</g>
<g>
</g>
<g>
</g>
<g>
</g>
</svg>
