<?xml version="1.0" encoding="iso-8859-1"?>
<!-- Generator: Adobe Illustrator 19.0.0, SVG Export Plug-In . SVG Version: 6.00 Build 0)  -->
<svg version="1.1" id="Layer_1" xmlns="http://www.w3.org/2000/svg" xmlns:xlink="http://www.w3.org/1999/xlink" x="0px" y="0px"
	 viewBox="0 0 473.931 473.931" style="enable-background:new 0 0 473.931 473.931;" xml:space="preserve">
<circle style="fill:#D7DABA;" cx="236.966" cy="236.966" r="236.966"/>
<path style="fill:#E37A26;" d="M144.398,93.791c-8.827,0-15.981,7.154-15.981,15.981v255.757c0,8.827,7.154,15.981,15.981,15.981
	H328.22c8.827,0,15.981-7.154,15.981-15.981V167.814l-77.05-74.023H144.398z"/>
<g>
	<path style="fill:#D06A28;" d="M344.201,167.814h-61.066c-8.827,0-15.981-7.154-15.981-15.981V93.791L344.201,167.814z"/>
	<path style="fill:#D06A28;" d="M263.966,271.772c0,10.189-8.258,18.447-18.439,18.447H110.876
		c-10.189,0-18.439-8.258-18.439-18.447v-56.351c0-10.189,8.251-18.443,18.439-18.443h134.651c10.181,0,18.439,8.254,18.439,18.443
		V271.772z"/>
</g>
<g>
	<path style="fill:#FFFFFF;" d="M140.249,226.133c3.888,0,7.225,0.79,10.017,2.365c2.784,1.575,4.898,3.82,6.327,6.728
		s2.148,6.32,2.148,10.245c0,2.9-0.389,5.534-1.175,7.903s-1.961,4.427-3.528,6.163c-1.568,1.736-3.499,3.068-5.781,3.989
		c-2.282,0.92-4.905,1.381-7.854,1.381c-2.934,0-5.557-0.471-7.876-1.418s-4.254-2.279-5.807-4.004
		c-1.553-1.725-2.728-3.794-3.514-6.215c-0.797-2.421-1.19-5.04-1.19-7.854c0-2.881,0.412-5.527,1.242-7.929
		c0.827-2.406,2.024-4.449,3.592-6.14c1.568-1.691,3.48-2.978,5.729-3.876S137.386,226.133,140.249,226.133z M151.044,245.418
		c0-2.746-0.442-5.126-1.328-7.136s-2.152-3.532-3.798-4.565c-1.646-1.033-3.536-1.549-5.669-1.549
		c-1.515,0-2.919,0.284-4.206,0.857c-1.291,0.572-2.398,1.403-3.326,2.496c-0.932,1.093-1.665,2.485-2.2,4.183
		c-0.543,1.699-0.808,3.603-0.808,5.717c0,2.133,0.266,4.056,0.808,5.781c0.535,1.721,1.295,3.151,2.271,4.284
		c0.984,1.134,2.107,1.983,3.375,2.544c1.272,0.561,2.668,0.846,4.183,0.846c1.946,0,3.731-0.486,5.362-1.459
		c1.628-0.973,2.922-2.473,3.888-4.501C150.561,250.885,151.044,248.386,151.044,245.418z"/>
	<path style="fill:#FFFFFF;" d="M169.947,226.773h9.901c2.574,0,4.782,0.239,6.627,0.715c1.845,0.475,3.51,1.373,5.014,2.687
		c3.906,3.341,5.856,8.423,5.856,15.244c0,2.253-0.198,4.307-0.587,6.163c-0.389,1.856-0.999,3.532-1.815,5.025
		c-0.816,1.493-1.867,2.825-3.147,4.004c-1.007,0.905-2.107,1.628-3.3,2.174c-1.194,0.546-2.477,0.932-3.847,1.152
		c-1.373,0.221-2.922,0.333-4.644,0.333H170.1c-1.381,0-2.421-0.21-3.121-0.625s-1.156-1.007-1.366-1.766
		c-0.217-0.76-0.322-1.744-0.322-2.956v-27.494c0-1.639,0.367-2.821,1.1-3.555S168.308,226.773,169.947,226.773z M172.888,232.782
		v25.451h5.755c1.261,0,2.253-0.034,2.967-0.101c0.715-0.067,1.459-0.239,2.226-0.513c0.767-0.273,1.433-0.655,1.994-1.152
		c2.541-2.148,3.813-5.848,3.813-11.102c0-3.701-0.558-6.469-1.673-8.314c-1.119-1.841-2.496-3.016-4.131-3.517
		c-1.635-0.501-3.615-0.756-5.934-0.756h-5.018V232.782z"/>
	<path style="fill:#FFFFFF;" d="M218.571,249.665h-6.956v10.615c0,1.519-0.359,2.668-1.074,3.454
		c-0.715,0.786-1.62,1.175-2.713,1.175c-1.145,0-2.065-0.389-2.761-1.164c-0.696-0.775-1.048-1.916-1.048-3.416v-28.901
		c0-1.673,0.385-2.866,1.152-3.581c0.767-0.715,1.987-1.074,3.659-1.074h9.744c2.885,0,5.096,0.221,6.649,0.666
		c1.534,0.427,2.862,1.134,3.978,2.122c1.115,0.988,1.961,2.2,2.544,3.633s0.868,3.042,0.868,4.834c0,3.82-1.175,6.713-3.528,8.685
		S223.226,249.665,218.571,249.665z M216.73,232.476h-5.115v11.461h5.115c1.792,0,3.285-0.187,4.49-0.561
		c1.197-0.374,2.114-0.988,2.746-1.841c0.632-0.853,0.947-1.968,0.947-3.353c0-1.654-0.486-3.001-1.459-4.041
		C222.365,233.029,220.124,232.476,216.73,232.476z"/>
</g>
<g>
</g>
<g>
</g>
<g>
</g>
<g>
</g>
<g>
</g>
<g>
</g>
<g>
</g>
<g>
</g>
<g>
</g>
<g>
</g>
<g>
</g>
<g>
</g>
<g>
</g>
<g>
</g>
<g>
</g>
</svg>
