<?xml version="1.0" encoding="iso-8859-1"?>
<!-- Generator: Adobe Illustrator 19.0.0, SVG Export Plug-In . SVG Version: 6.00 Build 0)  -->
<svg version="1.1" id="Layer_1" xmlns="http://www.w3.org/2000/svg" xmlns:xlink="http://www.w3.org/1999/xlink" x="0px" y="0px"
	 viewBox="0 0 473.931 473.931" style="enable-background:new 0 0 473.931 473.931;" xml:space="preserve">
<circle style="fill:#D7DABA;" cx="236.966" cy="236.966" r="236.966"/>
<path style="fill:#ACC337;" d="M144.395,93.791c-8.823,0-15.981,7.158-15.981,15.985v255.753c0,8.827,7.158,15.981,15.981,15.981
	H328.22c8.827,0,15.981-7.154,15.981-15.981V167.814l-77.047-74.023H144.395z"/>
<g>
	<path style="fill:#A1B13A;" d="M344.205,167.814h-61.066c-8.827,0-15.981-7.158-15.981-15.985V93.791L344.205,167.814z"/>
	<path style="fill:#A1B13A;" d="M263.966,271.772c0,10.189-8.258,18.447-18.443,18.447H110.876
		c-10.189,0-18.443-8.258-18.443-18.447v-56.351c0-10.189,8.254-18.443,18.443-18.443h134.647c10.185,0,18.443,8.254,18.443,18.443
		V271.772z"/>
</g>
<g>
	<path style="fill:#FFFFFF;" d="M140.252,226.13c3.888,0,7.229,0.79,10.013,2.365c2.791,1.575,4.902,3.82,6.331,6.728
		c1.429,2.907,2.148,6.32,2.148,10.245c0,2.9-0.389,5.534-1.175,7.903s-1.961,4.426-3.528,6.163
		c-1.568,1.736-3.499,3.068-5.781,3.989c-2.282,0.92-4.905,1.381-7.854,1.381c-2.934,0-5.557-0.471-7.876-1.418
		s-4.254-2.279-5.807-4.004c-1.553-1.725-2.724-3.794-3.517-6.215c-0.79-2.421-1.186-5.04-1.186-7.854
		c0-2.881,0.412-5.527,1.239-7.929c0.831-2.406,2.028-4.449,3.596-6.14c1.568-1.691,3.48-2.978,5.729-3.876
		S137.386,226.13,140.252,226.13z M151.047,245.418c0-2.746-0.442-5.126-1.328-7.136s-2.152-3.532-3.802-4.565
		c-1.643-1.033-3.532-1.549-5.665-1.549c-1.515,0-2.919,0.284-4.209,0.857c-1.287,0.572-2.395,1.403-3.326,2.496
		c-0.928,1.093-1.658,2.485-2.2,4.183c-0.535,1.699-0.804,3.603-0.804,5.717c0,2.133,0.269,4.056,0.804,5.781
		c0.543,1.721,1.298,3.151,2.279,4.284c0.98,1.134,2.107,1.983,3.375,2.544s2.664,0.846,4.18,0.846c1.946,0,3.731-0.486,5.358-1.459
		c1.631-0.973,2.926-2.473,3.888-4.501C150.565,250.881,151.047,248.386,151.047,245.418z"/>
	<path style="fill:#FFFFFF;" d="M169.947,226.769h9.901c2.574,0,4.782,0.239,6.627,0.715c1.845,0.475,3.51,1.373,5.014,2.687
		c3.906,3.341,5.856,8.423,5.856,15.244c0,2.253-0.198,4.307-0.587,6.163c-0.389,1.856-0.999,3.532-1.815,5.025
		c-0.816,1.493-1.867,2.825-3.147,4.004c-1.007,0.905-2.107,1.628-3.3,2.174c-1.194,0.546-2.477,0.932-3.85,1.152
		c-1.369,0.221-2.919,0.333-4.64,0.333H170.1c-1.381,0-2.421-0.21-3.121-0.625c-0.7-0.415-1.156-1.007-1.369-1.766
		c-0.213-0.76-0.318-1.744-0.318-2.956V231.42c0-1.639,0.367-2.821,1.1-3.555S168.312,226.769,169.947,226.769z M172.888,232.782
		v25.451h5.755c1.261,0,2.253-0.034,2.967-0.101c0.715-0.067,1.459-0.239,2.226-0.513c0.767-0.273,1.433-0.655,1.994-1.152
		c2.541-2.148,3.813-5.848,3.813-11.102c0-3.701-0.558-6.469-1.676-8.314c-1.115-1.841-2.492-3.016-4.131-3.517
		c-1.639-0.501-3.615-0.756-5.934-0.756h-5.014V232.782z"/>
	<path style="fill:#FFFFFF;" d="M232.513,253.014c0,2.268-0.584,4.307-1.751,6.114c-1.171,1.807-2.881,3.222-5.13,4.247
		c-2.249,1.025-4.917,1.534-8.007,1.534c-3.701,0-6.754-0.7-9.156-2.099c-1.706-1.007-3.091-2.35-4.153-4.03
		c-1.066-1.68-1.601-3.311-1.601-4.898c0-0.92,0.322-1.71,0.958-2.365c0.644-0.655,1.456-0.984,2.443-0.984
		c0.801,0,1.482,0.254,2.036,0.767c0.55,0.513,1.025,1.268,1.418,2.275c0.479,1.194,0.995,2.189,1.549,2.993
		c0.55,0.801,1.332,1.463,2.339,1.983c1.007,0.52,2.327,0.778,3.966,0.778c2.253,0,4.082-0.524,5.485-1.572
		c1.411-1.048,2.11-2.357,2.11-3.925c0-1.246-0.382-2.256-1.141-3.031c-0.756-0.778-1.74-1.369-2.937-1.777
		c-1.205-0.408-2.81-0.846-4.823-1.306c-2.694-0.629-4.947-1.369-6.769-2.211c-1.811-0.846-3.255-1.994-4.318-3.454
		c-1.066-1.459-1.601-3.27-1.601-5.437c0-2.062,0.561-3.899,1.688-5.5c1.126-1.601,2.754-2.836,4.887-3.697
		c2.133-0.861,4.636-1.291,7.521-1.291c2.301,0,4.292,0.284,5.976,0.857c1.676,0.572,3.072,1.328,4.18,2.275
		c1.108,0.947,1.92,1.942,2.428,2.978c0.509,1.036,0.767,2.054,0.767,3.042c0,0.905-0.318,1.717-0.962,2.443
		c-0.636,0.726-1.437,1.089-2.391,1.089c-0.868,0-1.53-0.217-1.979-0.651c-0.453-0.434-0.943-1.149-1.474-2.137
		c-0.685-1.414-1.5-2.518-2.455-3.311c-0.954-0.793-2.488-1.19-4.602-1.19c-1.961,0-3.54,0.43-4.748,1.291
		c-1.197,0.861-1.8,1.897-1.8,3.109c0,0.752,0.206,1.399,0.614,1.946c0.408,0.546,0.973,1.014,1.688,1.407
		c0.715,0.393,1.441,0.7,2.174,0.92c0.733,0.221,1.946,0.546,3.633,0.973c2.114,0.494,4.026,1.04,5.744,1.639
		c1.71,0.599,3.173,1.321,4.37,2.174c1.205,0.853,2.14,1.931,2.814,3.237C232.176,249.523,232.513,251.121,232.513,253.014z"/>
</g>
<g>
</g>
<g>
</g>
<g>
</g>
<g>
</g>
<g>
</g>
<g>
</g>
<g>
</g>
<g>
</g>
<g>
</g>
<g>
</g>
<g>
</g>
<g>
</g>
<g>
</g>
<g>
</g>
<g>
</g>
</svg>
