<?xml version="1.0" encoding="iso-8859-1"?>
<!-- Generator: Adobe Illustrator 19.0.0, SVG Export Plug-In . SVG Version: 6.00 Build 0)  -->
<svg version="1.1" id="Layer_1" xmlns="http://www.w3.org/2000/svg" xmlns:xlink="http://www.w3.org/1999/xlink" x="0px" y="0px"
	 viewBox="0 0 473.935 473.935" style="enable-background:new 0 0 473.935 473.935;" xml:space="preserve">
<circle style="fill:#D7DABA;" cx="236.967" cy="236.967" r="236.967"/>
<path style="fill:#517AA6;" d="M144.396,93.792c-8.823,0-15.981,7.154-15.981,15.981v255.759c0,8.827,7.158,15.981,15.981,15.981
	h183.827c8.827,0,15.981-7.154,15.981-15.981V167.815l-77.047-74.024H144.396z"/>
<g>
	<path style="fill:#396183;" d="M344.207,167.815h-61.066c-8.827,0-15.981-7.154-15.981-15.981V93.792L344.207,167.815z"/>
	<path style="fill:#396183;" d="M263.968,271.774c0,10.189-8.258,18.447-18.443,18.447H110.877
		c-10.189,0-18.443-8.258-18.443-18.447v-56.351c0-10.189,8.254-18.443,18.443-18.443h134.648c10.185,0,18.443,8.254,18.443,18.443
		V271.774z"/>
</g>
<g>
	<path style="fill:#FFFFFF;" d="M141.35,226.135c3.888,0,7.229,0.79,10.013,2.365c2.791,1.575,4.902,3.82,6.331,6.728
		c1.429,2.907,2.148,6.32,2.148,10.245c0,2.9-0.389,5.534-1.175,7.903c-0.786,2.369-1.961,4.427-3.529,6.163
		c-1.568,1.736-3.499,3.068-5.781,3.989c-2.282,0.921-4.905,1.381-7.854,1.381c-2.934,0-5.557-0.475-7.876-1.418
		c-2.32-0.95-4.254-2.279-5.807-4.004c-1.553-1.725-2.724-3.794-3.517-6.215c-0.79-2.421-1.186-5.04-1.186-7.854
		c0-2.881,0.412-5.527,1.239-7.929c0.831-2.406,2.028-4.449,3.596-6.14c1.568-1.691,3.48-2.978,5.729-3.877
		C135.928,226.573,138.484,226.135,141.35,226.135z M152.141,245.42c0-2.746-0.442-5.126-1.328-7.136
		c-0.887-2.009-2.152-3.532-3.802-4.565c-1.643-1.033-3.532-1.549-5.665-1.549c-1.515,0-2.919,0.284-4.21,0.857
		c-1.287,0.572-2.395,1.403-3.326,2.496c-0.928,1.093-1.658,2.485-2.2,4.183c-0.535,1.699-0.804,3.603-0.804,5.717
		c0,2.133,0.269,4.056,0.804,5.781c0.543,1.725,1.298,3.151,2.279,4.284c0.98,1.138,2.107,1.983,3.375,2.548
		c1.268,0.561,2.664,0.846,4.18,0.846c1.946,0,3.731-0.486,5.358-1.459c1.631-0.973,2.926-2.473,3.888-4.501
		C151.662,250.887,152.141,248.387,152.141,245.42z"/>
	<path style="fill:#FFFFFF;" d="M171.045,226.775h9.901c2.574,0,4.782,0.239,6.627,0.715c1.845,0.475,3.51,1.373,5.014,2.687
		c3.906,3.341,5.856,8.423,5.856,15.244c0,2.253-0.198,4.303-0.587,6.163c-0.389,1.86-0.999,3.532-1.815,5.025
		c-0.819,1.493-1.867,2.829-3.147,4.004c-1.007,0.905-2.107,1.631-3.3,2.174s-2.477,0.932-3.85,1.152
		c-1.37,0.221-2.919,0.333-4.64,0.333h-9.901c-1.381,0-2.421-0.21-3.121-0.625c-0.7-0.419-1.156-1.01-1.37-1.77
		c-0.213-0.756-0.318-1.74-0.318-2.952V231.43c0-1.639,0.367-2.821,1.1-3.555C168.227,227.142,169.409,226.775,171.045,226.775z
		 M173.986,232.784v25.452h5.755c1.261,0,2.253-0.034,2.967-0.101s1.459-0.236,2.226-0.513s1.433-0.655,1.994-1.152
		c2.541-2.148,3.813-5.848,3.813-11.102c0-3.697-0.558-6.47-1.676-8.314c-1.115-1.841-2.492-3.016-4.131-3.517
		c-1.639-0.501-3.615-0.756-5.934-0.756h-5.014V232.784z"/>
	<path style="fill:#FFFFFF;" d="M229.469,233.042h-8.288v27.24c0,1.568-0.352,2.732-1.048,3.491c-0.7,0.76-1.605,1.141-2.713,1.141
		c-1.126,0-2.043-0.385-2.746-1.152c-0.707-0.767-1.063-1.927-1.063-3.48v-27.24h-8.288c-1.298,0-2.26-0.284-2.889-0.857
		s-0.947-1.325-0.947-2.264c0-0.973,0.329-1.74,0.984-2.301c0.659-0.561,1.609-0.846,2.855-0.846h24.146
		c1.313,0,2.29,0.292,2.926,0.868c0.644,0.58,0.962,1.34,0.962,2.275c0,0.935-0.326,1.691-0.973,2.264
		C231.74,232.754,230.764,233.042,229.469,233.042z"/>
</g>
<g>
</g>
<g>
</g>
<g>
</g>
<g>
</g>
<g>
</g>
<g>
</g>
<g>
</g>
<g>
</g>
<g>
</g>
<g>
</g>
<g>
</g>
<g>
</g>
<g>
</g>
<g>
</g>
<g>
</g>
</svg>
