<?xml version="1.0" encoding="iso-8859-1"?>
<!-- Generator: Adobe Illustrator 19.0.0, SVG Export Plug-In . SVG Version: 6.00 Build 0)  -->
<svg version="1.1" id="Layer_1" xmlns="http://www.w3.org/2000/svg" xmlns:xlink="http://www.w3.org/1999/xlink" x="0px" y="0px"
	 viewBox="0 0 473.935 473.935" style="enable-background:new 0 0 473.935 473.935;" xml:space="preserve">
<circle style="fill:#D7DABA;" cx="236.967" cy="236.967" r="236.967"/>
<path style="fill:#8D964E;" d="M144.399,93.792c-8.827,0-15.981,7.154-15.981,15.981v255.759c0,8.827,7.154,15.981,15.981,15.981
	h183.823c8.827,0,15.981-7.154,15.981-15.981V167.815l-77.047-74.024H144.399z"/>
<g>
	<path style="fill:#73773D;" d="M344.207,167.815h-61.066c-8.827,0-15.981-7.154-15.981-15.981V93.792L344.207,167.815z"/>
	<path style="fill:#73773D;" d="M263.968,271.774c0,10.189-8.258,18.447-18.44,18.447H110.877c-10.189,0-18.44-8.258-18.44-18.447
		v-56.351c0-10.189,8.251-18.443,18.44-18.443h134.652c10.181,0,18.44,8.254,18.44,18.443V271.774z"/>
</g>
<g>
	<path style="fill:#FFFFFF;" d="M144.268,226.135c3.888,0,7.229,0.79,10.013,2.365c2.791,1.575,4.902,3.82,6.331,6.728
		c1.429,2.907,2.148,6.32,2.148,10.245c0,2.9-0.389,5.534-1.175,7.903c-0.786,2.369-1.961,4.427-3.529,6.163
		c-1.568,1.736-3.499,3.068-5.781,3.989c-2.282,0.921-4.905,1.381-7.854,1.381c-2.934,0-5.557-0.475-7.876-1.418
		c-2.32-0.95-4.254-2.279-5.807-4.004c-1.553-1.725-2.724-3.794-3.517-6.215c-0.79-2.421-1.186-5.04-1.186-7.854
		c0-2.881,0.412-5.527,1.239-7.929c0.831-2.406,2.028-4.449,3.596-6.14c1.568-1.691,3.48-2.978,5.729-3.877
		C138.847,226.573,141.406,226.135,144.268,226.135z M155.063,245.42c0-2.746-0.442-5.126-1.328-7.136
		c-0.887-2.009-2.152-3.532-3.802-4.565c-1.643-1.033-3.532-1.549-5.665-1.549c-1.515,0-2.919,0.284-4.21,0.857
		c-1.287,0.572-2.395,1.403-3.326,2.496c-0.928,1.093-1.658,2.485-2.2,4.183c-0.535,1.699-0.804,3.603-0.804,5.717
		c0,2.133,0.269,4.056,0.804,5.781c0.543,1.725,1.298,3.151,2.279,4.284c0.98,1.138,2.107,1.983,3.375,2.548
		c1.268,0.561,2.664,0.846,4.18,0.846c1.946,0,3.731-0.486,5.358-1.459c1.631-0.973,2.926-2.473,3.888-4.501
		C154.581,250.887,155.063,248.387,155.063,245.42z"/>
	<path style="fill:#FFFFFF;" d="M191.617,233.042h-8.288v27.24c0,1.568-0.352,2.732-1.048,3.491c-0.7,0.76-1.605,1.141-2.713,1.141
		c-1.126,0-2.043-0.385-2.746-1.152c-0.707-0.767-1.063-1.927-1.063-3.48v-27.24h-8.288c-1.298,0-2.26-0.284-2.889-0.857
		s-0.947-1.325-0.947-2.264c0-0.973,0.329-1.74,0.984-2.301c0.659-0.561,1.609-0.846,2.855-0.846h24.142
		c1.313,0,2.29,0.292,2.926,0.868c0.644,0.58,0.962,1.34,0.962,2.275c0,0.935-0.326,1.691-0.973,2.264
		C193.885,232.754,192.912,233.042,191.617,233.042z"/>
	<path style="fill:#FFFFFF;" d="M228.5,253.016c0,2.268-0.584,4.307-1.751,6.114c-1.171,1.804-2.881,3.222-5.13,4.247
		c-2.249,1.025-4.917,1.534-8.007,1.534c-3.701,0-6.754-0.703-9.156-2.099c-1.706-1.01-3.091-2.35-4.153-4.026
		c-1.066-1.68-1.602-3.315-1.602-4.902c0-0.92,0.322-1.71,0.958-2.365c0.644-0.659,1.456-0.988,2.443-0.988
		c0.801,0,1.482,0.254,2.036,0.767c0.55,0.513,1.025,1.272,1.418,2.275c0.479,1.194,0.995,2.189,1.549,2.993
		c0.55,0.804,1.332,1.463,2.339,1.979c1.007,0.524,2.327,0.782,3.966,0.782c2.253,0,4.082-0.528,5.485-1.572
		c1.411-1.051,2.11-2.361,2.11-3.929c0-1.246-0.382-2.256-1.141-3.031c-0.756-0.778-1.74-1.369-2.937-1.781
		c-1.205-0.408-2.81-0.846-4.823-1.306c-2.694-0.629-4.947-1.366-6.769-2.215c-1.811-0.842-3.255-1.994-4.318-3.45
		c-1.066-1.463-1.601-3.274-1.601-5.437c0-2.062,0.561-3.899,1.688-5.5c1.126-1.602,2.754-2.836,4.887-3.697
		c2.133-0.861,4.636-1.291,7.521-1.291c2.301,0,4.292,0.284,5.976,0.857c1.676,0.572,3.072,1.328,4.18,2.275s1.92,1.942,2.428,2.978
		c0.509,1.036,0.767,2.054,0.767,3.042c0,0.906-0.318,1.717-0.962,2.443c-0.636,0.726-1.437,1.089-2.391,1.089
		c-0.868,0-1.53-0.217-1.979-0.651c-0.453-0.434-0.943-1.149-1.474-2.137c-0.685-1.414-1.5-2.518-2.455-3.311
		s-2.488-1.19-4.602-1.19c-1.961,0-3.54,0.43-4.748,1.291c-1.197,0.861-1.8,1.897-1.8,3.109c0,0.752,0.206,1.399,0.614,1.946
		c0.408,0.546,0.973,1.014,1.688,1.407c0.715,0.393,1.441,0.7,2.174,0.921c0.733,0.221,1.946,0.546,3.633,0.973
		c2.114,0.498,4.026,1.036,5.744,1.639c1.71,0.599,3.173,1.325,4.37,2.174c1.205,0.853,2.14,1.934,2.814,3.233
		C228.163,249.529,228.5,251.126,228.5,253.016z"/>
</g>
<g>
</g>
<g>
</g>
<g>
</g>
<g>
</g>
<g>
</g>
<g>
</g>
<g>
</g>
<g>
</g>
<g>
</g>
<g>
</g>
<g>
</g>
<g>
</g>
<g>
</g>
<g>
</g>
<g>
</g>
</svg>
