<?xml version="1.0" encoding="iso-8859-1"?>
<!-- Generator: Adobe Illustrator 19.0.0, SVG Export Plug-In . SVG Version: 6.00 Build 0)  -->
<svg version="1.1" id="Layer_1" xmlns="http://www.w3.org/2000/svg" xmlns:xlink="http://www.w3.org/1999/xlink" x="0px" y="0px"
	 viewBox="0 0 473.935 473.935" style="enable-background:new 0 0 473.935 473.935;" xml:space="preserve">
<circle style="fill:#D7DABA;" cx="236.967" cy="236.967" r="236.967"/>
<path style="fill:#6DA0D5;" d="M144.396,93.792c-8.823,0-15.981,7.154-15.981,15.981v255.759c0,8.827,7.158,15.981,15.981,15.981
	h183.827c8.827,0,15.981-7.154,15.981-15.981V167.815l-77.047-74.024H144.396z"/>
<g>
	<path style="fill:#588DBF;" d="M344.207,167.815h-61.066c-8.827,0-15.981-7.154-15.981-15.981V93.792L344.207,167.815z"/>
	<path style="fill:#588DBF;" d="M263.968,271.774c0,10.189-8.258,18.447-18.443,18.447H110.877
		c-10.189,0-18.443-8.258-18.443-18.447v-56.351c0-10.189,8.254-18.443,18.443-18.443h134.648c10.185,0,18.443,8.254,18.443,18.443
		V271.774z"/>
</g>
<g>
	<path style="fill:#FFFFFF;" d="M145.365,226.135c3.888,0,7.225,0.79,10.017,2.365c2.784,1.575,4.898,3.82,6.327,6.728
		c1.429,2.907,2.148,6.32,2.148,10.245c0,2.9-0.389,5.534-1.175,7.903c-0.786,2.369-1.961,4.427-3.529,6.163
		c-1.568,1.736-3.499,3.068-5.781,3.989c-2.282,0.921-4.905,1.381-7.854,1.381c-2.934,0-5.557-0.475-7.876-1.418
		c-2.32-0.95-4.254-2.279-5.807-4.004c-1.553-1.725-2.728-3.794-3.514-6.215c-0.797-2.421-1.19-5.04-1.19-7.854
		c0-2.881,0.412-5.527,1.242-7.929c0.827-2.406,2.024-4.449,3.592-6.14c1.568-1.691,3.48-2.978,5.729-3.877
		C139.943,226.573,142.499,226.135,145.365,226.135z M156.16,245.42c0-2.746-0.442-5.126-1.328-7.136
		c-0.887-2.009-2.152-3.532-3.798-4.565c-1.646-1.033-3.536-1.549-5.669-1.549c-1.515,0-2.919,0.284-4.206,0.857
		c-1.291,0.572-2.398,1.403-3.326,2.496c-0.932,1.093-1.665,2.485-2.2,4.183c-0.543,1.699-0.808,3.603-0.808,5.717
		c0,2.133,0.266,4.056,0.808,5.781c0.535,1.725,1.295,3.151,2.271,4.284c0.984,1.138,2.107,1.983,3.375,2.548
		c1.272,0.561,2.668,0.846,4.183,0.846c1.946,0,3.731-0.486,5.362-1.459c1.628-0.973,2.922-2.473,3.888-4.501
		C155.677,250.887,156.16,248.387,156.16,245.42z"/>
	<path style="fill:#FFFFFF;" d="M192.71,233.042h-8.288v27.24c0,1.568-0.352,2.732-1.048,3.491c-0.7,0.76-1.605,1.141-2.713,1.141
		c-1.126,0-2.043-0.385-2.75-1.152c-0.703-0.767-1.059-1.927-1.059-3.48v-27.24h-8.288c-1.298,0-2.26-0.284-2.889-0.857
		c-0.629-0.572-0.947-1.325-0.947-2.264c0-0.973,0.329-1.74,0.988-2.301c0.655-0.561,1.605-0.846,2.851-0.846h24.146
		c1.313,0,2.286,0.292,2.93,0.868c0.636,0.58,0.958,1.34,0.958,2.275c0,0.935-0.326,1.691-0.973,2.264
		C194.981,232.754,194.008,233.042,192.71,233.042z"/>
	<path style="fill:#FFFFFF;" d="M225.45,233.042h-8.288v27.24c0,1.568-0.352,2.732-1.048,3.491c-0.7,0.76-1.605,1.141-2.713,1.141
		c-1.126,0-2.043-0.385-2.75-1.152c-0.703-0.767-1.059-1.927-1.059-3.48v-27.24h-8.288c-1.298,0-2.26-0.284-2.889-0.857
		s-0.947-1.325-0.947-2.264c0-0.973,0.329-1.74,0.988-2.301c0.655-0.561,1.605-0.846,2.851-0.846h24.146
		c1.313,0,2.286,0.292,2.93,0.868c0.636,0.58,0.958,1.34,0.958,2.275c0,0.935-0.326,1.691-0.973,2.264
		S226.749,233.042,225.45,233.042z"/>
</g>
<g>
</g>
<g>
</g>
<g>
</g>
<g>
</g>
<g>
</g>
<g>
</g>
<g>
</g>
<g>
</g>
<g>
</g>
<g>
</g>
<g>
</g>
<g>
</g>
<g>
</g>
<g>
</g>
<g>
</g>
</svg>
