<?xml version="1.0" encoding="iso-8859-1"?>
<!-- Generator: Adobe Illustrator 19.0.0, SVG Export Plug-In . SVG Version: 6.00 Build 0)  -->
<svg version="1.1" id="Layer_1" xmlns="http://www.w3.org/2000/svg" xmlns:xlink="http://www.w3.org/1999/xlink" x="0px" y="0px"
	 viewBox="0 0 473.931 473.931" style="enable-background:new 0 0 473.931 473.931;" xml:space="preserve">
<circle style="fill:#D7DABA;" cx="236.966" cy="236.966" r="236.966"/>
<path style="fill:#F7981D;" d="M144.398,93.791c-8.823,0-15.981,7.158-15.981,15.985v255.753c0,8.827,7.158,15.981,15.981,15.981
	H328.22c8.827,0,15.981-7.154,15.981-15.981V167.814l-77.05-74.023H144.398z"/>
<g>
	<path style="fill:#E88524;" d="M344.201,167.814h-61.066c-8.827,0-15.981-7.158-15.981-15.985V93.791L344.201,167.814z"/>
	<path style="fill:#E88524;" d="M263.966,271.772c0,10.189-8.258,18.447-18.439,18.447H110.88c-10.189,0-18.443-8.258-18.443-18.447
		v-56.351c0-10.189,8.254-18.443,18.443-18.443h134.647c10.181,0,18.439,8.254,18.439,18.443V271.772z"/>
</g>
<g>
	<path style="fill:#FFFFFF;" d="M143.497,249.665h-6.956v10.615c0,1.519-0.359,2.668-1.074,3.454
		c-0.715,0.786-1.62,1.175-2.713,1.175c-1.145,0-2.065-0.389-2.761-1.164c-0.696-0.775-1.048-1.916-1.048-3.416v-28.901
		c0-1.673,0.385-2.866,1.152-3.581c0.767-0.715,1.987-1.074,3.659-1.074h9.744c2.885,0,5.096,0.221,6.649,0.666
		c1.534,0.427,2.862,1.134,3.977,2.122c1.119,0.988,1.964,2.2,2.548,3.633c0.584,1.433,0.868,3.042,0.868,4.834
		c0,3.82-1.175,6.713-3.528,8.685C151.661,248.685,148.155,249.665,143.497,249.665z M141.656,232.476h-5.115v11.461h5.115
		c1.792,0,3.289-0.187,4.486-0.561c1.205-0.374,2.118-0.988,2.75-1.841c0.632-0.853,0.947-1.968,0.947-3.353
		c0-1.654-0.486-3.001-1.459-4.041C147.291,233.029,145.049,232.476,141.656,232.476z"/>
	<path style="fill:#FFFFFF;" d="M178.437,249.665h-6.956v10.615c0,1.519-0.359,2.668-1.074,3.454
		c-0.715,0.786-1.62,1.175-2.713,1.175c-1.145,0-2.065-0.389-2.761-1.164c-0.696-0.775-1.048-1.916-1.048-3.416v-28.901
		c0-1.673,0.385-2.866,1.152-3.581c0.767-0.715,1.987-1.074,3.659-1.074h9.744c2.885,0,5.096,0.221,6.649,0.666
		c1.534,0.427,2.862,1.134,3.977,2.122c1.119,0.988,1.964,2.2,2.548,3.633s0.868,3.042,0.868,4.834c0,3.82-1.175,6.713-3.528,8.685
		S183.092,249.665,178.437,249.665z M176.596,232.476h-5.115v11.461h5.115c1.792,0,3.289-0.187,4.486-0.561
		c1.205-0.374,2.118-0.988,2.75-1.841c0.632-0.853,0.947-1.968,0.947-3.353c0-1.654-0.486-3.001-1.459-4.041
		C182.231,233.029,179.99,232.476,176.596,232.476z"/>
	<path style="fill:#FFFFFF;" d="M227.319,253.014c0,2.268-0.584,4.307-1.751,6.114c-1.171,1.807-2.881,3.222-5.13,4.247
		c-2.249,1.025-4.917,1.534-8.007,1.534c-3.701,0-6.754-0.7-9.156-2.099c-1.706-1.007-3.091-2.35-4.153-4.03
		c-1.066-1.68-1.601-3.311-1.601-4.898c0-0.92,0.322-1.71,0.958-2.365c0.644-0.655,1.456-0.984,2.443-0.984
		c0.801,0,1.482,0.254,2.036,0.767c0.55,0.513,1.025,1.268,1.418,2.275c0.479,1.194,0.995,2.189,1.549,2.993
		c0.55,0.801,1.332,1.463,2.339,1.983c1.007,0.52,2.327,0.778,3.966,0.778c2.253,0,4.082-0.524,5.485-1.572
		c1.411-1.048,2.11-2.357,2.11-3.925c0-1.246-0.382-2.256-1.141-3.031c-0.756-0.778-1.74-1.369-2.937-1.777
		c-1.205-0.408-2.81-0.846-4.823-1.306c-2.694-0.629-4.947-1.369-6.769-2.211c-1.811-0.846-3.255-1.994-4.318-3.454
		c-1.066-1.459-1.601-3.27-1.601-5.437c0-2.062,0.561-3.899,1.688-5.5c1.126-1.601,2.754-2.836,4.887-3.697s4.636-1.291,7.521-1.291
		c2.301,0,4.292,0.284,5.976,0.857c1.676,0.572,3.072,1.328,4.18,2.275c1.108,0.947,1.92,1.942,2.428,2.978
		c0.509,1.036,0.767,2.054,0.767,3.042c0,0.905-0.318,1.717-0.962,2.443c-0.636,0.726-1.437,1.089-2.391,1.089
		c-0.868,0-1.53-0.217-1.979-0.651c-0.453-0.434-0.943-1.149-1.474-2.137c-0.685-1.414-1.5-2.518-2.455-3.311
		c-0.954-0.793-2.488-1.19-4.602-1.19c-1.961,0-3.54,0.43-4.748,1.291c-1.197,0.861-1.8,1.897-1.8,3.109
		c0,0.752,0.206,1.399,0.614,1.946c0.408,0.546,0.973,1.014,1.688,1.407c0.715,0.393,1.441,0.7,2.174,0.92
		c0.733,0.221,1.946,0.546,3.633,0.973c2.114,0.494,4.026,1.04,5.744,1.639c1.71,0.599,3.173,1.321,4.37,2.174
		c1.205,0.853,2.14,1.931,2.814,3.237C226.983,249.523,227.319,251.125,227.319,253.014z"/>
</g>
<g>
</g>
<g>
</g>
<g>
</g>
<g>
</g>
<g>
</g>
<g>
</g>
<g>
</g>
<g>
</g>
<g>
</g>
<g>
</g>
<g>
</g>
<g>
</g>
<g>
</g>
<g>
</g>
<g>
</g>
</svg>
