<?xml version="1.0" encoding="iso-8859-1"?>
<!-- Generator: Adobe Illustrator 19.0.0, SVG Export Plug-In . SVG Version: 6.00 Build 0)  -->
<svg version="1.1" id="Layer_1" xmlns="http://www.w3.org/2000/svg" xmlns:xlink="http://www.w3.org/1999/xlink" x="0px" y="0px"
	 viewBox="0 0 473.654 473.654" style="enable-background:new 0 0 473.654 473.654;" xml:space="preserve">
<circle style="fill:#D7DABA;" cx="236.827" cy="236.827" r="236.827"/>
<path style="fill:#368BCA;" d="M144.31,93.732c-8.818,0-15.972,7.154-15.972,15.975v255.604c0,8.822,7.154,15.972,15.972,15.972
	h183.718c8.822,0,15.972-7.15,15.972-15.972V167.712l-77.002-73.98H144.31z"/>
<g>
	<path style="fill:#0E81C2;" d="M344.003,167.716h-61.03c-8.822,0-15.972-7.15-15.972-15.972V93.732L344.003,167.716z"/>
	<path style="fill:#0E81C2;" d="M263.812,271.613c0,10.183-8.253,18.436-18.432,18.436H110.811
		c-10.183,0-18.432-8.253-18.432-18.436v-56.318c0-10.183,8.25-18.436,18.432-18.436H245.38c10.179,0,18.432,8.253,18.432,18.436
		V271.613z"/>
</g>
<g>
	<path style="fill:#FFFFFF;" d="M175.293,259.463c1.107,0.752,2.319,1.481,3.631,2.184s2.18,1.268,2.606,1.687
		c0.426,0.419,0.639,1.01,0.639,1.776c0,0.546-0.251,1.092-0.755,1.638c-0.501,0.546-1.111,0.819-1.825,0.819
		c-0.58,0-1.283-0.187-2.109-0.561c-0.826-0.374-1.795-0.92-2.913-1.638c-1.114-0.714-2.337-1.552-3.665-2.505
		c-2.472,1.26-5.505,1.892-9.102,1.892c-2.913,0-5.527-0.464-7.838-1.395c-2.307-0.931-4.248-2.266-5.815-4.013
		c-1.567-1.746-2.745-3.822-3.541-6.226c-0.789-2.405-1.185-5.019-1.185-7.849c0-2.879,0.411-5.523,1.238-7.924
		c0.83-2.405,2.027-4.446,3.594-6.137c1.567-1.69,3.478-2.977,5.725-3.874s4.805-1.343,7.67-1.343c3.885,0,7.225,0.789,10.007,2.363
		c2.79,1.574,4.899,3.818,6.327,6.724c1.429,2.906,2.147,6.316,2.147,10.239C180.124,251.273,178.516,255.985,175.293,259.463z
		 M169.339,255.323c1.055-1.212,1.836-2.644,2.341-4.293c0.501-1.653,0.752-3.571,0.752-5.751c0-2.745-0.441-5.123-1.328-7.131
		s-2.15-3.53-3.799-4.562c-1.642-1.032-3.53-1.548-5.662-1.548c-1.515,0-2.917,0.284-4.207,0.856
		c-1.286,0.572-2.393,1.402-3.324,2.494c-0.927,1.092-1.657,2.483-2.199,4.181c-0.535,1.698-0.804,3.601-0.804,5.714
		c0,4.312,1.006,7.632,3.018,9.958c2.012,2.326,4.551,3.489,7.618,3.489c1.26,0,2.558-0.266,3.885-0.793
		c-0.8-0.598-1.802-1.193-3.003-1.791c-1.204-0.598-2.027-1.058-2.468-1.38s-0.666-0.782-0.666-1.38
		c0-0.512,0.213-0.961,0.639-1.354c0.426-0.393,0.894-0.587,1.406-0.587C163.094,251.438,165.689,252.732,169.339,255.323z"/>
	<path style="fill:#FFFFFF;" d="M208.96,232.904h-8.283v27.224c0,1.567-0.352,2.73-1.047,3.489
		c-0.696,0.759-1.604,1.137-2.711,1.137c-1.126,0-2.042-0.385-2.745-1.152c-0.707-0.767-1.062-1.926-1.062-3.478v-27.224h-8.283
		c-1.298,0-2.259-0.284-2.887-0.856c-0.628-0.572-0.946-1.324-0.946-2.262c0-0.972,0.329-1.739,0.984-2.3
		c0.658-0.561,1.608-0.845,2.853-0.845h24.131c1.313,0,2.289,0.292,2.924,0.868c0.643,0.58,0.961,1.339,0.961,2.274
		s-0.325,1.69-0.972,2.262S210.258,232.904,208.96,232.904z"/>
</g>
<g>
</g>
<g>
</g>
<g>
</g>
<g>
</g>
<g>
</g>
<g>
</g>
<g>
</g>
<g>
</g>
<g>
</g>
<g>
</g>
<g>
</g>
<g>
</g>
<g>
</g>
<g>
</g>
<g>
</g>
</svg>
