<?xml version="1.0" encoding="iso-8859-1"?>
<!-- Generator: Adobe Illustrator 19.0.0, SVG Export Plug-In . SVG Version: 6.00 Build 0)  -->
<svg version="1.1" id="Layer_1" xmlns="http://www.w3.org/2000/svg" xmlns:xlink="http://www.w3.org/1999/xlink" x="0px" y="0px"
	 viewBox="0 0 473.931 473.931" style="enable-background:new 0 0 473.931 473.931;" xml:space="preserve">
<circle style="fill:#D7DABA;" cx="236.966" cy="236.966" r="236.966"/>
<path style="fill:#A11D2A;" d="M144.398,93.791c-8.827,0-15.981,7.154-15.981,15.981v255.757c0,8.827,7.154,15.981,15.981,15.981
	H328.22c8.827,0,15.981-7.154,15.981-15.981V167.814l-77.05-74.023H144.398z"/>
<g>
	<path style="fill:#7F1325;" d="M344.201,167.814h-61.066c-8.827,0-15.981-7.154-15.981-15.981V93.791L344.201,167.814z"/>
	<path style="fill:#7F1325;" d="M263.966,271.772c0,10.189-8.258,18.447-18.439,18.447H110.876
		c-10.189,0-18.439-8.258-18.439-18.447v-56.351c0-10.189,8.251-18.443,18.439-18.443h134.651c10.181,0,18.439,8.254,18.439,18.443
		V271.772z"/>
</g>
<g>
	<path style="fill:#FFFFFF;" d="M153.884,248.232h-2.66v12.048c0,1.587-0.352,2.754-1.048,3.506
		c-0.696,0.752-1.613,1.126-2.735,1.126c-1.209,0-2.148-0.393-2.814-1.175c-0.666-0.782-0.999-1.934-0.999-3.454v-28.856
		c0-1.639,0.367-2.821,1.1-3.555s1.92-1.1,3.555-1.1h12.355c1.706,0,3.166,0.075,4.374,0.217c1.209,0.142,2.301,0.438,3.274,0.883
		c1.175,0.494,2.219,1.201,3.121,2.122c0.902,0.92,1.59,1.991,2.058,3.21c0.471,1.22,0.703,2.511,0.703,3.876
		c0,2.799-0.79,5.029-2.365,6.701c-1.579,1.673-3.974,2.855-7.177,3.555c1.347,0.715,2.634,1.774,3.861,3.173
		c1.227,1.399,2.324,2.885,3.285,4.464c0.965,1.575,1.717,3.001,2.253,4.273c0.543,1.268,0.808,2.144,0.808,2.623
		c0,0.494-0.157,0.984-0.471,1.47c-0.318,0.486-0.748,0.868-1.295,1.152s-1.175,0.423-1.893,0.423c-0.853,0-1.568-0.202-2.148-0.602
		c-0.58-0.4-1.078-0.909-1.497-1.523c-0.415-0.614-0.984-1.519-1.699-2.713l-3.042-5.066c-1.093-1.86-2.069-3.274-2.93-4.247
		c-0.857-0.973-1.732-1.639-2.619-1.994C156.353,248.415,155.231,248.232,153.884,248.232z M158.232,232.476h-7.008v10.309h6.803
		c1.822,0,3.356-0.157,4.602-0.471c1.246-0.314,2.196-0.853,2.851-1.613c0.659-0.76,0.988-1.804,0.988-3.132
		c0-1.04-0.262-1.957-0.793-2.75c-0.531-0.793-1.261-1.384-2.2-1.777C162.587,232.666,160.84,232.476,158.232,232.476z"/>
	<path style="fill:#FFFFFF;" d="M197.367,264.269h-11.461c-1.654,0-2.836-0.37-3.543-1.111c-0.703-0.741-1.059-1.923-1.059-3.543
		v-28.187c0-1.654,0.363-2.844,1.089-3.57c0.722-0.726,1.897-1.089,3.514-1.089h12.15c1.792,0,3.345,0.112,4.655,0.333
		c1.31,0.221,2.488,0.647,3.528,1.28c0.887,0.528,1.669,1.197,2.354,2.009c0.685,0.812,1.201,1.706,1.56,2.687
		c0.359,0.98,0.539,2.017,0.539,3.109c0,3.749-1.875,6.496-5.628,8.236c4.928,1.568,7.394,4.621,7.394,9.156
		c0,2.099-0.539,3.985-1.613,5.665c-1.074,1.68-2.526,2.919-4.348,3.723c-1.145,0.475-2.455,0.816-3.94,1.01
		S199.342,264.269,197.367,264.269z M188.899,232.476v9.695h6.956c1.893,0,3.353-0.18,4.389-0.539
		c1.029-0.359,1.818-1.04,2.365-2.047c0.427-0.715,0.64-1.519,0.64-2.406c0-1.893-0.674-3.151-2.021-3.772
		c-1.347-0.621-3.401-0.935-6.163-0.935h-6.166V232.476z M196.805,247.618h-7.903v10.948h8.161c5.134,0,7.701-1.852,7.701-5.549
		c0-1.893-0.666-3.267-1.994-4.12C201.441,248.045,199.447,247.618,196.805,247.618z"/>
</g>
<g>
</g>
<g>
</g>
<g>
</g>
<g>
</g>
<g>
</g>
<g>
</g>
<g>
</g>
<g>
</g>
<g>
</g>
<g>
</g>
<g>
</g>
<g>
</g>
<g>
</g>
<g>
</g>
<g>
</g>
</svg>
