<?xml version="1.0" encoding="iso-8859-1"?>
<!-- Generator: Adobe Illustrator 19.0.0, SVG Export Plug-In . SVG Version: 6.00 Build 0)  -->
<svg version="1.1" id="Layer_1" xmlns="http://www.w3.org/2000/svg" xmlns:xlink="http://www.w3.org/1999/xlink" x="0px" y="0px"
	 viewBox="0 0 473.931 473.931" style="enable-background:new 0 0 473.931 473.931;" xml:space="preserve">
<circle style="fill:#D7DABA;" cx="236.966" cy="236.966" r="236.966"/>
<path style="fill:#A82E6C;" d="M144.398,93.787c-8.827,0-15.981,7.154-15.981,15.981v255.757c0,8.827,7.154,15.981,15.981,15.981
	H328.22c8.827,0,15.981-7.154,15.981-15.981V167.81l-77.05-74.023H144.398z"/>
<g>
	<path style="fill:#932B63;" d="M344.201,167.81h-61.066c-8.827,0-15.981-7.154-15.981-15.981V93.787L344.201,167.81z"/>
	<path style="fill:#932B63;" d="M263.966,271.772c0,10.189-8.258,18.447-18.439,18.447H110.876
		c-10.189,0-18.439-8.258-18.439-18.447v-56.355c0-10.189,8.251-18.439,18.439-18.439h134.651c10.181,0,18.439,8.251,18.439,18.439
		V271.772z"/>
</g>
<g>
	<path style="fill:#FFFFFF;" d="M135.71,260.277v-11.895l-9.156-14.196c-0.801-1.28-1.369-2.275-1.699-2.993
		c-0.337-0.715-0.501-1.34-0.501-1.867c0-0.868,0.337-1.62,1.014-2.253c0.674-0.629,1.5-0.947,2.492-0.947
		c1.04,0,1.826,0.296,2.369,0.883c0.535,0.587,1.34,1.762,2.417,3.517l7.008,11.382l7.087-11.382c0.427-0.7,0.786-1.287,1.074-1.766
		c0.288-0.479,0.61-0.924,0.958-1.343c0.352-0.419,0.737-0.737,1.167-0.958c0.43-0.221,0.947-0.333,1.56-0.333
		c0.954,0,1.755,0.311,2.391,0.935c0.644,0.625,0.962,1.343,0.962,2.163c0,0.666-0.161,1.328-0.486,1.994
		c-0.326,0.666-0.876,1.587-1.661,2.761l-9.388,14.402v11.895c0,1.553-0.359,2.713-1.074,3.48c-0.715,0.767-1.631,1.152-2.735,1.152
		c-1.126,0-2.039-0.382-2.735-1.138S135.71,261.845,135.71,260.277z"/>
	<path style="fill:#FFFFFF;" d="M172.75,258.616l-6.009-23.891v25.885c0,1.433-0.322,2.507-0.958,3.222
		c-0.644,0.715-1.489,1.074-2.548,1.074c-1.021,0-1.86-0.355-2.507-1.063c-0.647-0.707-0.973-1.789-0.973-3.237v-29.672
		c0-1.639,0.427-2.739,1.28-3.311c0.853-0.572,2.002-0.857,3.454-0.857h2.354c1.414,0,2.44,0.127,3.083,0.385
		c0.636,0.254,1.111,0.715,1.418,1.381c0.307,0.666,0.659,1.747,1.048,3.248l5.448,20.539l5.448-20.539
		c0.389-1.5,0.741-2.582,1.048-3.248c0.307-0.666,0.782-1.126,1.418-1.381c0.644-0.254,1.669-0.385,3.083-0.385h2.354
		c1.452,0,2.601,0.284,3.454,0.857c0.853,0.572,1.28,1.676,1.28,3.311v29.672c0,1.433-0.318,2.507-0.962,3.222
		c-0.636,0.715-1.493,1.074-2.571,1.074c-1.007,0-1.833-0.359-2.481-1.074s-0.973-1.792-0.973-3.222v-25.885l-6.009,23.891
		c-0.389,1.553-0.711,2.69-0.962,3.416c-0.243,0.726-0.703,1.384-1.366,1.983c-0.662,0.599-1.587,0.894-2.761,0.894
		c-0.887,0-1.639-0.191-2.253-0.576c-0.614-0.385-1.093-0.872-1.433-1.47s-0.61-1.257-0.804-1.983
		C173.154,260.153,172.955,259.398,172.75,258.616z"/>
	<path style="fill:#FFFFFF;" d="M211.166,230.732v27.292h15.397c1.227,0,2.17,0.299,2.825,0.894
		c0.659,0.599,0.988,1.347,0.988,2.253c0,0.921-0.326,1.665-0.973,2.238c-0.647,0.572-1.594,0.857-2.84,0.857h-18.338
		c-1.654,0-2.844-0.367-3.566-1.1c-0.726-0.733-1.089-1.92-1.089-3.555v-28.879c0-1.534,0.344-2.687,1.036-3.454
		c0.688-0.767,1.598-1.152,2.724-1.152c1.145,0,2.069,0.382,2.773,1.137C210.815,228.027,211.166,229.183,211.166,230.732z"/>
</g>
<g>
</g>
<g>
</g>
<g>
</g>
<g>
</g>
<g>
</g>
<g>
</g>
<g>
</g>
<g>
</g>
<g>
</g>
<g>
</g>
<g>
</g>
<g>
</g>
<g>
</g>
<g>
</g>
<g>
</g>
</svg>
